<?xml version="1.0" encoding="UTF-8"?>
<svg version="1.1" xmlns="http://www.w3.org/2000/svg" width="200" height="77">
<path d="M0 0 C25 0 25 0 30.25 4.4375 C31.17084613 5.99105003 32.08760002 7.5486416 32.93017578 9.14599609 C35.12331739 12.9467075 37.98688944 16.30201992 40.6875 19.75 C42.21693824 21.77124047 43.74371322 23.79444223 45.26831055 25.81933594 C47.75637586 28.9524812 50.39625957 31.96230284 53 35 C53 23.45 53 11.9 53 0 C61.25 0 69.5 0 78 0 C78 25.41 78 50.82 78 77 C55 77 55 77 48.9375 71.125 C47.52685547 69.11010742 47.52685547 69.11010742 46.5546875 67.29296875 C43.68613224 62.30158924 40.1466991 57.92913202 36.5625 53.4375 C35.39508813 51.93778933 34.22961556 50.43656636 33.06640625 48.93359375 C30.73791125 45.93202704 28.37391141 42.96738926 26 40 C25.67 52.21 25.34 64.42 25 77 C16.75 77 8.5 77 0 77 C0 51.59 0 26.18 0 0 Z " fill="#D12B3A" transform="translate(76,0)"/>
<path d="M0 0 C7.87875 -0.103125 15.7575 -0.20625 23.875 -0.3125 C26.34210449 -0.35802002 28.80920898 -0.40354004 31.35107422 -0.45043945 C33.33559821 -0.4650606 35.32013734 -0.4777974 37.3046875 -0.48828125 C38.31152588 -0.51386108 39.31836426 -0.53944092 40.35571289 -0.5657959 C47.595116 -0.57019836 52.91588357 1.02299834 59 5 C63.28382559 9.28382559 65.08105261 13.42993088 65.3125 19.4375 C65.16006083 25.18255111 63.24971407 28.59788178 59.4375 32.875 C57 35 57 35 55 35 C55 35.66 55 36.32 55 37 C55.721875 37.061875 56.44375 37.12375 57.1875 37.1875 C62.13556444 38.61694084 65.21086976 42.81630465 68 47 C69.94927594 52.84782781 69.99381511 59.58785806 67.5625 65.3125 C64.44890237 70.70866387 59.13421413 73.62744339 53.56933594 76.06445312 C48.51547937 77.38910281 43.67877061 77.2460599 38.4765625 77.1953125 C37.49969482 77.19329834 36.52282715 77.19128418 35.51635742 77.18920898 C31.88585682 77.17878703 28.25542343 77.15086456 24.625 77.125 C12.435625 77.063125 12.435625 77.063125 0 77 C0 51.59 0 26.18 0 0 Z M24 18 C24 21.96 24 25.92 24 30 C29.51637599 30.16716291 33.83481717 30.1952027 39 28 C40.31120653 26.89203039 40.31120653 26.89203039 40.375 24.125 C40.3128026 20.94561722 40.3128026 20.94561722 38.1875 19.125 C33.39074633 17.43202812 29.07232396 17.81666299 24 18 Z M24 48 C24 51.63 24 55.26 24 59 C26.58361518 59.05407567 29.16609255 59.093707 31.75 59.125 C32.47960938 59.14175781 33.20921875 59.15851562 33.9609375 59.17578125 C37.8044624 59.21072239 40.74606772 59.17499684 44 57 C44.25015873 53.58357241 44.25015873 53.58357241 44 50 C40.95318939 47.96879293 40.39881676 47.75340125 36.98828125 47.8046875 C36.23095703 47.81113281 35.47363281 47.81757812 34.69335938 47.82421875 C33.90767578 47.84097656 33.12199219 47.85773437 32.3125 47.875 C31.51521484 47.88402344 30.71792969 47.89304688 29.89648438 47.90234375 C27.930861 47.92588415 25.96539225 47.96175453 24 48 Z " fill="#D02636" transform="translate(0,0)"/>
<path d="M0 0 C0 22.44 0 44.88 0 68 C-8.25 68 -16.5 68 -25 68 C-28.78675967 25.68707674 -28.78675967 25.68707674 -19.94921875 14.890625 C-6.6244999 0 -6.6244999 0 0 0 Z " fill="#CF2030" transform="translate(187,9)"/>
<path d="M0 0 C8.25 0 16.5 0 25 0 C20.23117717 5.56362663 15.41347144 10.7696002 10.25 15.9375 C9.48300781 16.71673828 8.71601563 17.49597656 7.92578125 18.29882812 C7.19230469 19.03423828 6.45882812 19.76964844 5.703125 20.52734375 C5.03958008 21.19499756 4.37603516 21.86265137 3.69238281 22.55053711 C2 24 2 24 0 24 C0 16.08 0 8.16 0 0 Z " fill="#D53C4A" transform="translate(162,0)"/>
<path d="M0 0 C0 22.44 0 44.88 0 68 C-0.33 68 -0.66 68 -1 68 C-1.495 36.32 -1.495 36.32 -2 4 C-23.41465072 21.52105921 -23.41465072 21.52105921 -25.26953125 36.45703125 C-25.22332659 40.29201814 -25.07805948 43.99984792 -24.8125 47.8125 C-24.75516178 49.78815107 -24.70759495 51.7641105 -24.66992188 53.74023438 C-24.55839542 58.50455369 -24.31767443 63.24516224 -24 68 C-24.33 68 -24.66 68 -25 68 C-29.06772576 26.03032119 -29.06772576 26.03032119 -19.94921875 14.890625 C-6.6244999 0 -6.6244999 0 0 0 Z " fill="#E999A0" transform="translate(187,9)"/>
<path d="M0 0 C2.5 0.25 2.5 0.25 4.5 2.25 C4.6875 5.3125 4.6875 5.3125 4.5 8.25 C3.5 9.25 3.5 9.25 0.5625 9.4375 C-2.5 9.25 -2.5 9.25 -4.5 7.25 C-4.75 4.75 -4.75 4.75 -4.5 2.25 C-2.5 0.25 -2.5 0.25 0 0 Z M2.5 3.25 C3.5 5.25 3.5 5.25 3.5 5.25 Z M-0.5 6.25 C0.5 8.25 0.5 8.25 0.5 8.25 Z " fill="#E8969D" transform="translate(195.5,67.75)"/>
<path d="M0 0 C1.32 0 2.64 0 4 0 C3.34 1.98 2.68 3.96 2 6 C0.68 5.67 -0.64 5.34 -2 5 C-2 4.34 -2 3.68 -2 3 C-1.34 3 -0.68 3 0 3 C0 2.01 0 1.02 0 0 Z " fill="#E17680" transform="translate(194,71)"/>
</svg>
