<svg version="1.0" xmlns="http://www.w3.org/2000/svg"
 width="1068.000000pt" height="534.000000pt" viewBox="0 0 1068.000000 534.000000"
 preserveAspectRatio="xMidYMid meet">

<g transform="translate(0.000000,534.000000) scale(0.100000,-0.100000)"
fill="#000000" stroke="none">
<path d="M4875 5329 c-1444 -62 -2796 -425 -3709 -996 -1217 -761 -1503 -1792
-748 -2693 692 -826 2196 -1433 3952 -1594 460 -42 1193 -55 1585 -28 1277 89
2317 344 3170 777 865 439 1387 989 1520 1605 23 105 30 327 16 444 -45 353
-228 693 -546 1011 -423 425 -1035 772 -1825 1036 -1002 334 -2209 489 -3415
438z m905 -39 c1510 -67 2866 -439 3780 -1037 609 -399 972 -871 1055 -1372
25 -147 16 -376 -19 -516 -152 -607 -696 -1152 -1571 -1575 -241 -117 -607
-265 -729 -296 -28 -7 -28 -7 -12 18 14 22 14 28 -4 76 -11 29 -20 58 -20 66
0 8 52 31 138 61 157 55 199 74 226 104 l19 21 -54 -19 c-30 -10 -119 -42
-198 -70 -111 -40 -146 -49 -152 -39 -5 7 -25 60 -44 118 l-37 104 34 28 c69
57 159 87 264 88 55 0 63 3 94 35 l34 35 -50 0 c-93 0 -205 -44 -320 -126
l-61 -43 -11 24 c-18 39 -35 31 -91 -42 l-32 -42 38 -3 38 -3 72 -204 c40
-113 72 -205 70 -206 -16 -13 -324 -102 -536 -155 -755 -189 -1493 -275 -2366
-274 -657 0 -1137 39 -1721 139 -1822 313 -3189 1115 -3498 2052 -57 175 -70
257 -71 438 0 183 21 300 82 465 362 977 1800 1770 3728 2054 588 87 1311 123
1925 96z"/>
<path d="M5319 5023 c-40 -65 -92 -148 -115 -185 l-43 -66 45 -4 c44 -3 46 -2
70 39 l25 43 129 0 130 0 20 -40 c24 -48 33 -52 89 -48 l42 3 -114 185 -114
185 -45 3 -46 3 -73 -118z m162 -41 l41 -72 -92 0 -92 0 28 48 c15 26 35 59
43 74 9 16 20 27 24 25 5 -1 26 -35 48 -75z"/>
<path d="M4726 5123 l-29 -5 6 -180 c4 -100 9 -183 11 -185 2 -3 92 -1 200 3
l196 7 0 35 0 35 -154 -7 -154 -7 -7 155 c-8 170 -3 159 -69 149z"/>
<path d="M5867 5088 c-4 -24 -9 -109 -13 -190 l-7 -148 40 0 40 0 6 83 c4 45
7 104 7 132 l0 49 48 -45 c26 -25 97 -89 159 -142 88 -77 117 -97 141 -97 21
0 32 6 36 18 3 9 8 92 12 185 l7 167 -40 0 -41 0 -8 -124 -9 -125 -115 100
c-175 153 -193 166 -226 173 -31 7 -32 6 -37 -36z"/>
<path d="M4225 5081 l-140 -16 2 -30 c2 -38 35 -339 37 -342 1 -1 21 1 45 4
l43 6 -7 72 -6 72 48 6 c26 3 93 11 147 18 130 16 147 30 139 115 -3 33 -11
70 -17 84 -10 23 -17 25 -81 26 -39 1 -133 -6 -210 -15z m203 -53 c7 -7 12
-29 12 -49 0 -42 -1 -42 -115 -54 -33 -3 -76 -8 -96 -11 l-37 -5 -7 46 c-3 26
-4 49 -1 52 4 5 162 28 217 32 8 0 20 -4 27 -11z"/>
<path d="M6558 4883 c-14 -98 -24 -181 -21 -185 2 -5 21 -8 42 -8 l38 0 12 98
c7 53 15 108 18 122 4 23 17 12 156 -127 117 -117 159 -153 178 -153 25 0 25
1 51 183 14 100 25 183 24 184 -1 1 -20 5 -42 9 l-41 6 -12 -108 c-7 -60 -15
-117 -18 -127 -4 -15 -36 14 -150 132 -128 134 -148 151 -177 151 l-33 0 -25
-177z"/>
<path d="M3345 4943 c-93 -19 -171 -36 -173 -38 -4 -4 66 -356 72 -362 6 -7
86 17 86 25 -1 4 -7 35 -14 70 -13 61 -13 62 8 67 11 3 74 16 140 30 132 27
166 43 166 80 0 52 -22 131 -42 148 -27 22 -43 21 -243 -20z m188 -76 c6 -23
6 -42 0 -48 -5 -5 -62 -19 -126 -33 l-117 -23 -5 21 c-3 11 -6 34 -7 50 l-3
30 105 22 c136 29 142 28 153 -19z"/>
<path d="M7295 4938 c-3 -7 -22 -89 -43 -181 -27 -114 -36 -170 -28 -172 6 -3
92 -23 191 -45 99 -22 186 -43 192 -45 7 -2 16 9 21 28 9 31 8 32 -32 44 -23
6 -94 24 -159 38 l-118 27 7 37 c4 20 10 40 15 45 5 6 37 3 81 -7 100 -24 108
-23 108 11 0 28 -2 29 -86 47 l-86 18 6 41 c4 22 8 41 9 43 2 1 70 -13 151
-32 82 -19 152 -35 156 -35 8 0 24 50 18 56 -2 2 -82 21 -178 43 -96 23 -185
43 -198 46 -13 3 -24 0 -27 -7z"/>
<path d="M2895 4836 c-31 -9 -39 -16 -37 -32 3 -19 79 -310 87 -331 6 -18 85
5 85 26 0 17 -86 340 -92 345 -1 2 -21 -2 -43 -8z"/>
<path d="M7900 4776 c-36 -96 -101 -319 -94 -326 5 -4 24 -12 42 -18 36 -12
36 -13 63 76 13 46 22 49 73 28 26 -11 46 -35 87 -104 54 -89 54 -90 116 -110
73 -23 74 -27 -10 88 -30 41 -54 77 -52 79 2 2 18 -2 36 -8 43 -15 84 -14 98
3 15 18 51 124 51 152 0 13 -10 30 -22 39 -20 14 -348 125 -370 125 -5 0 -13
-11 -18 -24z m200 -97 c120 -39 126 -45 107 -91 -8 -20 -19 -38 -24 -41 -7 -5
-221 59 -232 69 -2 2 2 24 9 49 8 30 18 45 29 45 9 0 59 -14 111 -31z"/>
<path d="M2400 4688 c-96 -34 -176 -62 -178 -63 -3 -2 115 -346 121 -351 2 -2
22 3 45 12 l41 17 -24 64 -25 64 35 15 c47 19 54 19 152 -21 48 -19 96 -35
107 -34 35 1 123 36 106 42 -8 3 -53 18 -100 32 -100 32 -112 41 -71 50 41 9
81 42 81 67 0 35 -32 127 -52 148 -10 11 -29 20 -41 19 -12 0 -101 -28 -197
-61z m186 -54 c8 -20 13 -42 10 -49 -6 -17 -225 -90 -236 -79 -9 11 -33 84
-28 89 7 7 204 74 221 74 12 1 23 -12 33 -35z"/>
<path d="M4805 4580 c-1650 -91 -3027 -536 -3652 -1179 -48 -49 -63 -60 -63
-45 0 51 -53 79 -101 54 -14 -8 -73 -88 -123 -167 -1 0 -67 -9 -148 -19 -81
-10 -151 -20 -156 -23 -14 -10 -104 -172 -98 -178 3 -3 94 -12 203 -20 109 -8
199 -16 201 -18 2 -1 -6 -34 -17 -71 -52 -173 -42 -399 24 -557 19 -46 19 -47
-5 -47 -12 0 -43 -29 -85 -81 -36 -45 -65 -84 -65 -88 0 -4 70 -18 155 -31
l154 -23 31 -38 c16 -21 30 -47 30 -59 0 -13 5 -20 13 -17 6 2 53 -34 102 -81
543 -510 1565 -894 2813 -1056 1341 -175 2801 -74 3942 273 323 98 561 192
830 327 300 150 502 288 689 469 129 125 217 241 281 370 74 149 95 240 94
405 -1 117 -5 147 -28 225 -56 186 -154 342 -316 506 -202 204 -414 348 -761
519 -698 343 -1614 558 -2724 641 -193 14 -1012 20 -1220 9z m1040 -40 c476
-25 908 -74 1310 -151 1457 -276 2447 -841 2637 -1506 18 -64 22 -102 22 -213
0 -118 -4 -146 -28 -225 -169 -554 -901 -1044 -2019 -1350 -542 -149 -1101
-238 -1802 -287 -233 -16 -1012 -16 -1255 0 -1414 95 -2592 436 -3281 949 -99
73 -269 228 -269 244 0 5 9 13 20 19 18 10 36 -3 151 -105 72 -63 134 -113
138 -111 4 3 23 39 41 81 l33 76 -72 148 c-39 82 -71 153 -71 159 0 14 257
412 287 444 41 44 56 41 137 -21 52 -40 151 -146 326 -347 139 -159 258 -295
265 -302 10 -11 21 2 58 71 l46 86 -59 124 c-33 69 -60 131 -60 138 0 8 16 40
35 72 37 61 46 119 25 158 -20 37 -92 13 -124 -42 -10 -16 -21 -29 -25 -29 -4
0 -26 42 -48 93 l-40 92 39 59 c64 93 62 176 -3 176 -38 0 -83 -26 -100 -57
-10 -19 -29 -32 -29 -19 0 2 -29 64 -64 138 l-64 135 114 219 c101 194 114
225 114 269 0 97 -45 119 -135 64 -42 -25 -74 -64 -199 -238 l-150 -207 -145
-22 c-81 -12 -151 -22 -158 -22 -8 0 -6 13 7 43 34 74 22 137 -26 137 -55 0
-91 -29 -139 -110 l-46 -79 -65 -6 c-36 -4 -67 -5 -71 -2 -3 3 41 52 98 109
178 178 397 328 694 478 735 371 1761 608 2900 669 220 12 831 12 1050 1z
m-3655 -810 c0 -44 -13 -74 -116 -270 l-116 -220 53 -113 c29 -61 67 -145 86
-186 l34 -73 38 59 c21 33 46 63 56 66 61 24 61 -25 -2 -115 l-46 -68 59 -135
c32 -74 62 -135 66 -135 4 0 25 26 47 59 84 124 119 69 41 -65 l-41 -70 62
-132 62 -132 -23 -50 c-13 -28 -27 -49 -31 -48 -4 2 -117 129 -252 283 -344
395 -411 443 -499 363 -20 -18 -99 -133 -177 -254 l-142 -222 75 -156 75 -157
-22 -50 -22 -50 -110 97 c-60 53 -117 103 -126 111 -14 12 -21 11 -53 -8 l-36
-21 0 35 c0 41 12 37 -190 67 -80 12 -147 24 -149 26 -2 2 14 25 36 51 l40 48
104 12 c57 6 141 14 187 18 l82 7 130 265 c72 147 130 276 130 288 0 31 -35
72 -78 94 -78 38 -169 51 -575 81 -154 11 -290 20 -304 20 l-24 0 31 59 32 59
96 12 c231 28 202 18 244 80 62 90 88 120 104 120 29 0 26 -31 -10 -91 -20
-34 -35 -64 -32 -66 3 -4 208 21 261 32 12 3 39 35 68 85 47 78 69 100 101
100 26 0 19 -45 -19 -120 -31 -62 -33 -70 -17 -70 59 0 397 61 404 73 4 7 71
102 149 211 106 146 153 203 183 221 64 38 76 34 76 -25z m-1030 -765 c197
-22 300 -58 300 -104 0 -13 -231 -503 -244 -518 -1 -2 -64 -9 -140 -16 l-138
-13 -19 43 c-73 171 -84 370 -29 553 l21 70 57 0 c31 0 118 -7 192 -15z"/>
<path d="M3606 4093 c-3 -10 -8 -141 -12 -290 l-7 -273 92 0 c119 0 1361 -27
1594 -35 l177 -6 0 291 c0 159 -1 290 -2 290 -8 1 -1759 40 -1795 40 -31 0
-43 -4 -47 -17z" fill="#E73136"/>
<path d="M5744 3868 c4 -133 9 -259 12 -279 l5 -37 177 -6 c97 -3 341 -9 542
-12 l365 -6 51 -52 c85 -87 97 -200 36 -330 l-30 -64 -39 4 c-21 2 -249 10
-508 19 -258 8 -503 17 -542 19 -40 3 -74 4 -74 3 -2 -2 -46 -1571 -45 -1574
2 -3 758 -24 762 -20 2 2 13 230 25 508 11 277 21 505 22 506 1 1 137 6 302
13 165 6 325 15 355 21 231 44 444 156 551 291 50 63 102 172 118 246 68 323
-142 709 -472 872 -152 75 -167 76 -857 94 -338 9 -648 19 -689 22 l-74 6 7
-244z" fill="#E73136"/>
<path d="M3562 2488 l3 -593 27 -57 c54 -116 150 -201 296 -262 189 -80 285
-92 810 -102 l362 -7 0 139 c0 77 3 210 7 297 l6 157 -246 0 c-225 0 -251 2
-298 21 -73 28 -105 53 -156 123 l-46 61 7 401 7 401 -218 6 c-120 4 -296 7
-391 7 l-173 0 3 -592z" fill="#E73136"/>
<path d="M1858 4478 l-206 -91 11 -26 c6 -14 12 -27 13 -29 1 -2 40 13 85 32
46 20 86 33 90 29 4 -5 31 -64 60 -133 28 -69 55 -129 59 -133 8 -9 80 22 80
35 0 5 -25 68 -56 140 -30 72 -52 134 -47 138 4 5 42 22 84 40 l77 32 -11 29
c-6 16 -16 29 -22 28 -5 0 -103 -41 -217 -91z"/>
<path d="M8544 4553 c-25 -26 -54 -94 -54 -130 0 -40 10 -47 170 -118 l128
-57 -15 -36 c-8 -21 -16 -38 -18 -40 -2 -2 -62 22 -134 54 -119 52 -130 59
-125 79 5 20 1 23 -32 29 -42 8 -54 -2 -54 -47 0 -39 22 -54 183 -124 134 -59
187 -72 214 -55 16 10 63 112 63 138 0 36 -23 53 -159 114 -74 33 -136 62
-138 64 -3 2 3 20 11 40 l15 36 58 -26 c32 -14 86 -37 121 -52 55 -23 62 -29
58 -48 -5 -18 0 -23 25 -28 55 -11 59 -9 59 34 0 30 -5 43 -22 54 -35 23 -301
136 -320 136 -9 0 -24 -8 -34 -17z"/>
<path d="M1113 1703 c-5 -16 -7 -37 -5 -47 3 -16 7 -14 18 13 8 18 14 40 14
47 0 24 -18 15 -27 -13z"/>
<path d="M1170 1655 c-14 -37 -5 -62 22 -61 17 1 26 -9 40 -46 19 -53 38 -212
38 -329 0 -43 3 -79 8 -79 4 0 52 14 107 30 101 29 115 42 18 16 -28 -8 -54
-11 -57 -8 -3 3 -6 33 -6 66 0 93 -29 304 -46 337 -13 26 -19 29 -64 29 -49 0
-50 0 -38 25 9 19 9 28 0 37 -8 8 -14 4 -22 -17z"/>
<path d="M9284 1509 c10 -51 28 -62 24 -15 -2 23 -9 41 -17 44 -11 4 -13 -3
-7 -29z"/>
<path d="M9217 1486 c-3 -7 1 -31 8 -52 l13 -39 7 28 c12 47 -13 104 -28 63z"/>
<path d="M1447 1460 c39 -16 63 -144 63 -334 l0 -129 60 7 c196 22 390 114
390 183 0 44 -62 79 -120 68 l-35 -7 27 -14 c55 -29 42 -95 -27 -143 -39 -26
-144 -61 -186 -61 l-29 0 0 69 c0 82 -26 288 -41 328 -14 37 -25 43 -79 42
-36 0 -41 -2 -23 -9z"/>
<path d="M9175 1252 c-31 -20 -100 -91 -106 -111 -3 -9 -12 -10 -31 -2 -29 11
-40 3 -56 -39 -8 -21 -5 -26 22 -40 17 -8 38 -30 46 -47 8 -18 18 -33 22 -33
3 0 15 16 27 35 22 37 19 57 -11 91 -19 21 -19 21 17 53 25 22 46 31 71 31 43
0 84 -37 84 -77 l0 -27 21 20 c11 12 23 40 26 62 5 36 2 45 -25 72 -35 34 -64
38 -107 12z"/>
<path d="M8830 1055 c-13 -14 -18 -25 -12 -25 6 0 21 -19 33 -41 l21 -41 -28
-29 c-59 -61 -105 -55 -139 20 -21 47 -46 53 -70 17 -15 -23 -15 -26 7 -48 13
-13 31 -39 40 -56 26 -49 58 -43 129 25 46 43 62 54 71 45 21 -21 53 -13 89
24 32 33 32 35 8 26 -35 -14 -51 -2 -79 57 -13 28 -29 51 -35 51 -6 0 -22 -11
-35 -25z"/>
<path d="M1806 1025 c-39 -21 -55 -44 -56 -81 0 -57 91 -115 180 -113 54 1 55
1 17 10 -44 10 -99 37 -109 53 -4 6 -8 23 -8 39 0 21 5 27 23 28 18 1 18 2 4
6 -18 5 -18 6 -1 24 22 25 55 24 88 -2 30 -24 33 -36 9 -41 -10 -2 9 -9 42
-15 33 -6 62 -9 64 -7 12 11 -36 56 -84 79 -69 34 -130 41 -169 20z"/>
<path d="M1888 953 c6 -2 18 -2 25 0 6 3 1 5 -13 5 -14 0 -19 -2 -12 -5z"/>
<path d="M2227 820 c-23 -18 -28 -29 -25 -59 3 -32 9 -39 48 -58 34 -18 60
-23 110 -22 l65 1 -55 8 c-82 12 -116 63 -83 123 8 14 66 6 104 -15 34 -19 39
-26 39 -59 0 -99 27 -129 117 -129 l48 1 -30 13 c-48 21 -60 42 -59 106 l1 57
-51 23 c-34 16 -76 25 -126 28 -66 4 -78 1 -103 -18z"/>
<path d="M7789 725 c-109 -24 -156 -42 -178 -69 -15 -18 -12 -19 21 -7 13 4
41 11 63 15 l39 8 -42 -46 c-53 -57 -57 -102 -15 -136 22 -17 36 -20 67 -15
45 7 127 48 153 77 14 16 9 15 -38 -6 -64 -30 -89 -32 -117 -8 -56 46 -26 120
60 146 45 14 132 68 103 65 -5 -1 -58 -12 -116 -24z"/>
<path d="M2655 723 c-27 -7 -44 -23 -23 -23 33 0 40 -25 23 -85 -9 -31 -14
-59 -12 -62 3 -3 18 -1 34 4 22 8 30 20 43 63 9 29 21 55 28 58 7 2 28 -10 46
-26 46 -40 86 -48 128 -26 l33 18 -31 6 c-17 4 -42 14 -55 23 -15 11 -43 17
-76 17 -46 0 -53 3 -53 20 0 16 -6 20 -32 19 -18 -1 -42 -3 -53 -6z"/>
<path d="M3532 701 c-53 -34 -62 -86 -18 -116 11 -8 74 -36 138 -61 134 -52
163 -77 147 -123 -17 -49 -75 -66 -155 -45 -60 15 -94 34 -139 76 -28 26 -33
27 -70 17 l-40 -11 44 -39 c127 -113 386 -99 416 21 11 46 -10 77 -72 108 -32
16 -69 33 -83 37 -99 29 -147 67 -135 105 17 52 123 40 192 -22 17 -16 30 -19
57 -14 55 10 52 24 -11 53 -81 38 -222 44 -271 14z"/>
<path d="M6528 618 l-38 -31 36 -31 c33 -29 36 -37 50 -131 19 -131 18 -129
64 -150 54 -24 81 -15 151 53 51 50 59 63 59 94 0 74 -75 90 -159 34 -57 -39
-55 -41 -66 59 -15 142 -31 158 -97 103z m250 -194 c25 -17 31 -71 10 -92 -15
-15 -79 -16 -112 -1 -25 12 -44 59 -31 79 19 30 98 39 133 14z"/>
<path d="M3004 626 c-39 -17 -74 -61 -74 -93 0 -55 118 -112 203 -97 l42 7
-65 13 c-77 16 -105 42 -96 88 13 61 65 84 114 50 33 -23 27 -33 -25 -37 -27
-2 -7 -4 45 -5 50 -1 92 2 92 6 0 5 -8 16 -18 25 -47 43 -166 66 -218 43z"/>
<path d="M6133 593 c-21 -14 -22 -21 -17 -87 7 -84 -12 -146 -76 -245 l-39
-61 52 30 c63 35 148 66 234 84 57 12 64 12 79 -5 52 -57 150 -72 190 -28 15
16 15 19 2 14 -47 -18 -202 94 -321 232 -40 45 -74 83 -77 82 -3 0 -15 -7 -27
-16z m172 -242 c-7 -6 -199 -70 -202 -67 -1 1 14 26 33 55 20 29 42 69 51 88
l14 36 54 -53 c30 -30 52 -56 50 -59z"/>
<path d="M7467 599 c-12 -7 -15 -14 -9 -22 5 -7 13 -31 17 -54 6 -40 5 -43
-27 -63 -18 -11 -49 -20 -69 -20 -39 0 -50 14 -64 88 -8 38 -31 42 -66 12 -22
-18 -23 -21 -7 -30 10 -6 21 -29 24 -51 13 -81 48 -87 149 -28 39 23 71 36 73
30 2 -6 12 -16 23 -21 20 -11 43 -3 89 32 l25 20 -28 -7 c-38 -10 -54 7 -67
71 -12 56 -25 65 -63 43z"/>
<path d="M7033 520 c-87 -31 -153 -89 -153 -135 0 -12 11 -32 25 -45 21 -19
37 -24 78 -24 97 0 217 89 217 161 0 62 -67 79 -167 43z m57 -25 c43 -22 57
-91 25 -124 -17 -18 -92 -19 -123 -2 -51 27 -46 101 8 128 33 17 55 16 90 -2z"/>
<path d="M4653 478 c-26 -13 -30 -40 -9 -57 11 -10 24 -7 58 10 35 19 39 24
23 27 -11 2 -24 10 -28 18 -9 16 -14 16 -44 2z"/>
<path d="M3932 444 c-36 -19 -62 -59 -62 -98 0 -51 94 -93 184 -82 71 8 81 24
15 24 -70 0 -107 15 -115 47 -19 76 44 131 104 89 35 -24 26 -34 -30 -34 -28
0 -49 -3 -45 -6 3 -3 48 -3 101 1 104 8 113 18 48 50 -53 25 -158 30 -200 9z"/>
<path d="M4261 401 l-34 -18 26 -7 c26 -6 27 -9 27 -76 0 -39 2 -70 5 -70 2 0
16 5 30 12 18 8 25 19 25 38 0 46 12 91 26 97 7 2 25 -5 41 -16 16 -12 45 -24
64 -27 30 -5 42 -1 68 22 l32 29 -43 3 c-24 2 -73 3 -110 4 -46 1 -69 5 -72
14 -7 19 -44 17 -85 -5z"/>
<path d="M4660 383 c-32 -12 -40 -24 -25 -39 12 -12 12 -20 0 -54 -8 -22 -12
-47 -9 -55 8 -19 38 -28 74 -20 35 8 50 25 21 25 -29 0 -34 14 -20 60 9 30 9
46 1 65 -12 26 -16 27 -42 18z"/>
<path d="M4917 379 c-134 -31 -187 -118 -104 -170 71 -45 222 -5 280 73 55 73
-45 128 -176 97z m87 -34 c33 -30 35 -81 5 -114 -18 -19 -28 -22 -58 -16 -66
12 -109 55 -96 96 19 60 100 79 149 34z"/>
<path d="M5651 377 c-35 -11 -101 -67 -101 -85 0 -6 26 -13 58 -17 115 -12
150 -33 97 -57 -20 -9 -36 -9 -71 0 -45 12 -84 4 -84 -18 0 -18 108 -11 162
10 124 47 125 81 1 99 -76 11 -108 25 -97 42 7 12 76 12 107 0 18 -7 31 -5 51
8 23 15 25 19 11 25 -24 9 -95 6 -134 -7z"/>
<path d="M5167 359 c-13 -8 -15 -14 -7 -29 5 -10 10 -39 10 -64 0 -37 4 -48
25 -62 23 -15 29 -15 87 4 l63 20 -47 1 c-57 1 -68 16 -68 90 0 46 -2 51 -22
51 -13 0 -31 -5 -41 -11z"/>
<path d="M5389 368 c-4 -13 -5 -128 -1 -146 2 -12 14 -25 27 -28 21 -5 95 19
95 31 0 3 -4 3 -10 0 -5 -3 -18 -1 -29 5 -16 8 -21 23 -23 73 -3 59 -4 62 -30
65 -16 2 -28 2 -29 0z"/>
<path d="M9424 5117 c-59 -29 -116 -91 -132 -146 -19 -61 -15 -149 9 -198 99
-204 404 -185 475 30 30 92 6 195 -63 263 -49 50 -90 67 -168 71 -59 3 -78 0
-121 -20z m201 -36 c74 -33 125 -114 125 -196 0 -45 -22 -115 -36 -115 -4 0
-32 19 -62 43 l-56 42 35 3 c50 5 59 17 59 83 0 47 -4 60 -19 69 -11 5 -76 10
-145 10 l-126 0 0 -130 0 -130 30 0 c29 0 30 1 30 50 0 49 0 50 32 50 24 0 43
-12 84 -50 46 -44 58 -50 95 -50 l42 0 -24 -26 c-39 -42 -92 -64 -155 -64
-107 0 -184 59 -210 162 -45 173 137 324 301 249z m-7 -110 c8 -5 12 -21 10
-37 l-3 -29 -82 -3 -83 -3 0 34 c0 18 3 37 7 40 9 10 136 8 151 -2z"/>
</g>
</svg>