<svg width="82" height="68" viewBox="0 0 82 68" fill="none" xmlns="http://www.w3.org/2000/svg">
<path d="M37.4952 0.226685C26.5226 1.01417 16.2491 5.62479 9.3114 12.8773C0.0637181 22.5431 -2.10952 35.6383 3.62753 47.0823C8.88587 57.5736 20.3144 65.2834 33.6578 67.3283C37.1532 67.8618 42.7231 68.0269 45.7018 67.684C55.4054 66.5535 63.3081 63.3147 69.7899 57.815C76.3628 52.239 80.3293 45.2533 81.34 37.4292C81.5147 36.0955 81.5679 33.2758 81.4615 31.7897C81.1196 27.3061 79.729 22.9876 77.3126 18.9486C74.0984 13.5505 69.4479 9.14309 63.4449 5.78991C55.831 1.54763 46.6593 -0.421089 37.4952 0.226685ZM44.372 0.722038C55.8462 1.57304 66.1501 6.29797 73.0953 13.8934C77.723 18.9613 80.4813 24.9564 81.112 31.3198C81.302 33.1869 81.2336 36.0955 80.9676 37.8737C79.8126 45.5835 75.6789 52.5058 69.03 57.8785C67.1987 59.3645 64.4175 61.2444 63.4905 61.6381C63.2777 61.727 63.2777 61.727 63.3993 61.4095C63.5057 61.13 63.5057 61.0538 63.3689 60.4442C63.2853 60.0758 63.2169 59.7075 63.2169 59.6059C63.2169 59.5043 63.6121 59.2121 64.2656 58.8311C65.4586 58.1325 65.7777 57.8912 65.9829 57.5101L66.1273 57.2434L65.7169 57.4847C65.489 57.6117 64.8127 58.0182 64.2124 58.3738C63.3689 58.8819 63.103 58.9962 63.0574 58.8692C63.0194 58.7803 62.8674 58.1071 62.723 57.3704L62.4419 56.0495L62.7002 55.6938C63.2245 54.9698 63.9084 54.5888 64.7063 54.5761C65.1242 54.5761 65.185 54.538 65.4206 54.1315L65.6789 53.687H65.299C64.5923 53.687 63.7413 54.2459 62.8674 55.2874L62.4039 55.8335L62.3203 55.5287C62.1835 55.0334 62.0543 55.135 61.6288 56.0622L61.3856 56.5956L61.6744 56.6337L61.9632 56.6718L62.5103 59.2629C62.8142 60.6982 63.0574 61.8667 63.0422 61.8794C62.9206 62.0445 60.5802 63.175 58.9692 63.8481C53.2322 66.2487 47.6243 67.341 40.9906 67.3283C35.9982 67.3283 32.3508 66.833 27.9131 65.5628C14.0682 61.5873 3.68072 51.4007 1.33271 39.4995C0.899581 37.2768 0.800798 36.2352 0.793199 33.9363C0.793199 31.6119 0.952773 30.1258 1.4163 28.0301C4.16704 15.6208 15.0941 5.54858 29.7444 1.94138C34.2125 0.836349 39.7064 0.379097 44.372 0.722038Z" fill="black"/>
<path d="M40.8688 4.1133C40.5649 4.93889 40.1697 5.99311 39.995 6.46307L39.6682 7.30136L40.0102 7.35217C40.3445 7.39027 40.3597 7.37757 40.5421 6.85681L40.732 6.31065H41.7123H42.7001L42.8521 6.81871C43.0345 7.42837 43.1028 7.47918 43.5284 7.42837L43.8475 7.39027L42.9813 5.04051L42.115 2.69074L41.7731 2.65264L41.4235 2.61453L40.8688 4.1133ZM42.0998 4.63406L42.4114 5.54856H41.7123H41.0132L41.226 4.93889C41.3399 4.60866 41.4919 4.18951 41.5527 3.99899C41.6211 3.79577 41.7047 3.65605 41.7351 3.68145C41.7731 3.69415 41.9326 4.126 42.0998 4.63406Z" fill="black"/>
<path d="M36.3629 2.84314L36.1426 2.90665L36.1882 5.19291C36.2186 6.46305 36.2566 7.51727 36.2718 7.54267C36.287 7.58078 36.9708 7.55537 37.7915 7.50457L39.2809 7.41566V6.97111V6.52656L38.1107 6.61547L36.9404 6.70438L36.8873 4.73566C36.8265 2.57641 36.8645 2.71613 36.3629 2.84314Z" fill="black"/>
<path d="M45.033 3.2877C45.0026 3.59253 44.9646 4.67215 44.9342 5.70097L44.881 7.58078H45.1849H45.4889L45.5345 6.52656C45.5649 5.955 45.5877 5.20561 45.5877 4.84997V4.2276L45.9524 4.79917C46.15 5.1167 46.6895 5.92959 47.1606 6.60277C47.8293 7.58078 48.0497 7.83481 48.232 7.83481C48.3916 7.83481 48.4752 7.7586 48.5056 7.60618C48.5284 7.49187 48.5664 6.43765 48.5968 5.25642L48.65 3.13528H48.346H48.0345L47.9737 4.71026L47.9053 6.29794L47.0314 5.02779C45.7016 3.08447 45.5649 2.91936 45.3141 2.83045C45.0785 2.74154 45.071 2.75424 45.033 3.2877Z" fill="black"/>
<path d="M32.5559 3.37665L31.4921 3.57987L31.5073 3.96091C31.5225 4.44357 31.7732 8.2667 31.7884 8.3048C31.796 8.3175 31.948 8.2921 32.1304 8.254L32.4571 8.17779L32.4039 7.26328L32.3583 6.34878L32.7231 6.27257C32.9206 6.23447 33.4297 6.13286 33.8401 6.04395C34.8279 5.84072 34.9571 5.6629 34.8963 4.58328C34.8735 4.16413 34.8127 3.69418 34.7671 3.51636C34.6911 3.22423 34.6379 3.19883 34.1516 3.18612C33.8553 3.17342 33.141 3.26233 32.5559 3.37665ZM34.0984 4.04982C34.1516 4.13873 34.1896 4.41816 34.1896 4.67219C34.1896 5.20565 34.182 5.20565 33.3158 5.35807C33.065 5.39617 32.7383 5.45968 32.5863 5.49778L32.3051 5.56129L32.2519 4.97703C32.2291 4.64679 32.2215 4.35466 32.2443 4.31655C32.2747 4.25304 33.4753 3.96091 33.8933 3.91011C33.9541 3.91011 34.0452 3.96091 34.0984 4.04982Z" fill="black"/>
<path d="M50.2839 5.89152C50.1775 7.13626 50.1015 8.19048 50.1243 8.24128C50.1395 8.30479 50.2839 8.34289 50.4434 8.34289H50.7322L50.8234 7.09815C50.8766 6.42498 50.9374 5.7264 50.9602 5.54858C50.9906 5.25645 51.0893 5.39616 52.1456 7.16166C53.0346 8.64773 53.3538 9.10498 53.4981 9.10498C53.6881 9.10498 53.6881 9.09228 53.8857 6.78062C53.9921 5.51048 54.0756 4.45626 54.068 4.44356C54.0605 4.43085 53.9161 4.38005 53.7489 4.32924L53.4374 4.25303L53.3462 5.62479C53.293 6.38687 53.2322 7.11086 53.2094 7.23787C53.179 7.42839 52.9358 7.06005 52.0696 5.56128C51.0969 3.85929 50.945 3.64336 50.7246 3.64336H50.4738L50.2839 5.89152Z" fill="black"/>
<path d="M25.8691 5.12942C25.1624 5.37075 24.5697 5.58667 24.5545 5.61208C24.5241 5.66288 25.056 10.1338 25.1016 10.21C25.1472 10.2989 25.7551 9.99407 25.7551 9.89246C25.7475 9.84165 25.7019 9.44791 25.6487 9.00336C25.5499 8.22857 25.5499 8.21587 25.7095 8.15236C25.7931 8.11426 26.2718 7.94914 26.7733 7.77132C27.7763 7.42838 28.0347 7.22516 28.0347 6.7552C28.0347 6.09473 27.8675 5.09132 27.7156 4.87539C27.5104 4.59596 27.3888 4.60866 25.8691 5.12942ZM27.2976 6.09473C27.3432 6.38686 27.3432 6.62819 27.2976 6.7044C27.2596 6.76791 26.8265 6.94573 26.3402 7.12355L25.4511 7.41568L25.4131 7.14895C25.3903 7.00923 25.3675 6.7171 25.3599 6.51388L25.3371 6.13283L26.135 5.8534C27.1684 5.48506 27.214 5.49776 27.2976 6.09473Z" fill="black"/>
<path d="M55.8841 5.19292C55.8613 5.28183 55.7169 6.32335 55.5574 7.49188C55.3522 8.93984 55.2838 9.65112 55.3446 9.67653C55.3902 9.71463 56.0437 9.96866 56.796 10.2481C57.5482 10.5275 58.2093 10.7943 58.2549 10.8197C58.3081 10.8451 58.3765 10.7053 58.4145 10.464C58.4829 10.0703 58.4753 10.0576 58.1713 9.90515C57.9966 9.82894 57.4571 9.60032 56.9631 9.4225L56.0665 9.07956L56.1197 8.60961C56.1501 8.35558 56.1957 8.10155 56.2337 8.03804C56.2716 7.96183 56.5148 7.99994 56.8492 8.12695C57.609 8.43179 57.6698 8.41909 57.6698 7.98724C57.6698 7.6316 57.6546 7.6189 57.0163 7.39027L56.3628 7.16164L56.4084 6.64088C56.4388 6.36145 56.4692 6.12013 56.4768 6.09472C56.492 6.08202 57.0087 6.25984 57.6242 6.50117C58.2473 6.7425 58.7792 6.94572 58.8096 6.94572C58.8704 6.94572 58.992 6.31065 58.9464 6.23444C58.9312 6.20904 58.3233 5.96771 57.5938 5.68828C56.8643 5.39614 56.1881 5.14212 56.0893 5.10401C55.9905 5.06591 55.9069 5.10401 55.8841 5.19292Z" fill="black"/>
<path d="M22.4497 6.48847C22.2142 6.60278 22.1534 6.69169 22.1686 6.89491C22.1914 7.13624 22.7689 10.8324 22.8297 11.0991C22.8753 11.3277 23.4756 11.0356 23.4756 10.7688C23.4756 10.5529 22.8221 6.45036 22.7765 6.38685C22.7689 6.36145 22.6169 6.41226 22.4497 6.48847Z" fill="black"/>
<path d="M60.4813 7.25057C60.2078 8.46991 59.7138 11.3023 59.767 11.3912C59.805 11.442 59.9494 11.5437 60.0862 11.6199C60.3597 11.7723 60.3597 11.785 60.5649 10.6546C60.6637 10.0703 60.7321 10.0322 61.1196 10.2989C61.3172 10.4386 61.4692 10.7435 61.7807 11.6199C62.191 12.7503 62.191 12.763 62.6622 13.017C63.2169 13.3092 63.2245 13.36 62.5862 11.8993C62.3582 11.3785 62.1758 10.9213 62.191 10.8959C62.2062 10.8705 62.3278 10.9213 62.4646 10.9975C62.7913 11.188 63.1029 11.1753 63.2093 10.9594C63.3232 10.7308 63.5968 9.38441 63.5968 9.02877C63.5968 8.86365 63.5208 8.64773 63.4296 8.53341C63.2777 8.35559 60.7853 6.94573 60.6181 6.94573C60.5801 6.94573 60.5193 7.08545 60.4813 7.25057ZM62.0011 8.48261C62.9129 8.97796 62.9585 9.05417 62.8141 9.63844C62.7533 9.89247 62.6698 10.1211 62.6318 10.1592C62.5786 10.2227 60.9524 9.40981 60.8689 9.2828C60.8537 9.2574 60.884 8.97796 60.9372 8.66043C60.998 8.27939 61.074 8.08886 61.1576 8.08886C61.226 8.08886 61.6059 8.26668 62.0011 8.48261Z" fill="black"/>
<path d="M18.6882 8.3683C17.9587 8.80014 17.3508 9.15578 17.3356 9.16849C17.3128 9.19389 18.2095 13.5632 18.2551 13.6267C18.2703 13.6521 18.4223 13.5886 18.597 13.4743L18.9086 13.2583L18.7262 12.4455L18.5362 11.6326L18.8022 11.442C19.1593 11.2007 19.2125 11.2007 19.9572 11.7088C20.3219 11.9501 20.6867 12.1533 20.7703 12.1406C21.0362 12.1279 21.7049 11.6834 21.5757 11.6072C21.5149 11.5691 21.173 11.3785 20.8159 11.2007C20.056 10.7943 19.9648 10.68 20.2763 10.5656C20.5879 10.4513 20.8918 10.0322 20.8918 9.71465C20.8918 9.2701 20.6487 8.10157 20.4967 7.83484C20.4207 7.69512 20.2763 7.58081 20.1852 7.59351C20.094 7.59351 19.4177 7.94915 18.6882 8.3683ZM20.1016 9.05417C20.1624 9.3082 20.2004 9.58763 20.1776 9.67654C20.132 9.89247 18.4678 10.8197 18.3843 10.68C18.3159 10.5402 18.1335 9.61304 18.1715 9.54953C18.2247 9.46062 19.7216 8.60962 19.8508 8.60962C19.942 8.59692 20.0256 8.76204 20.1016 9.05417Z" fill="black"/>
<path d="M36.9633 9.74004C24.4254 10.8959 13.9619 16.548 9.2127 24.715C8.84795 25.3374 8.73397 25.4771 8.73397 25.2866C8.73397 24.6388 8.33124 24.2832 7.9665 24.6007C7.86012 24.7023 7.41179 25.7184 7.03185 26.7219C7.02425 26.7219 6.52274 26.8362 5.90724 26.9632C5.29174 27.0902 4.75983 27.2172 4.72183 27.2553C4.61545 27.3823 3.93156 29.44 3.97715 29.5162C3.99995 29.5543 4.69144 29.6686 5.5197 29.7702C6.34797 29.8718 7.03185 29.9734 7.04705 29.9988C7.06225 30.0115 7.00146 30.4307 6.91787 30.9006C6.52274 33.098 6.59872 35.9685 7.10024 37.9753C7.24462 38.5596 7.24462 38.5723 7.06225 38.5723C6.97106 38.5723 6.7355 38.9406 6.41635 39.6011C6.1428 40.1727 5.92244 40.668 5.92244 40.7188C5.92244 40.7696 6.45435 40.9475 7.10024 41.1126L8.27045 41.4047L8.50601 41.8874C8.62759 42.1541 8.73397 42.4843 8.73397 42.6367C8.73397 42.8019 8.77197 42.8908 8.83276 42.8527C8.87835 42.8273 9.23549 43.2845 9.60783 43.8815C13.734 50.3592 21.4999 55.2366 30.9831 57.2942C41.173 59.5169 52.2672 58.2341 60.9374 53.8267C63.3918 52.582 65.2003 51.388 67.2444 49.6733C69.524 47.7681 71.0589 46.0153 72.4799 43.7164C73.4602 42.1287 74.1288 40.6553 74.6152 39.0168C75.1775 37.1243 75.337 35.9685 75.3294 33.8728C75.3218 32.3867 75.2915 32.0056 75.1167 31.0149C74.6911 28.6525 73.9465 26.671 72.7155 24.588C71.1805 21.9969 69.5696 20.1679 66.9328 17.996C61.6289 13.6394 54.6684 10.9086 46.2338 9.85435C44.7673 9.67653 38.5439 9.60032 36.9633 9.74004ZM44.866 10.2481C48.483 10.5656 51.7657 11.188 54.8204 12.166C65.8918 15.6716 73.4146 22.8479 74.8583 31.2944C74.9951 32.1073 75.0255 32.5899 75.0255 33.9998C75.0255 35.4985 74.9951 35.8542 74.8127 36.8576C73.5285 43.8942 67.9662 50.1179 59.4708 54.0045C55.3523 55.897 51.1046 57.0275 45.7779 57.6498C44.0074 57.8531 38.088 57.8531 36.2415 57.6498C25.4968 56.4432 16.5455 52.112 11.31 45.5962C10.5577 44.669 9.26589 42.7003 9.26589 42.497C9.26589 42.4335 9.33428 42.3319 9.41786 42.2557C9.55464 42.1287 9.69142 42.2938 10.5653 43.5894C11.1124 44.3895 11.5835 45.0246 11.6139 44.9992C11.6443 44.9611 11.7887 44.5039 11.9254 43.9704L12.1762 43.0051L11.6291 41.1253C11.3327 40.0838 11.0896 39.182 11.0896 39.1057C11.0896 38.9279 13.0425 33.8728 13.2704 33.4663C13.582 32.9074 13.696 32.9456 14.3115 33.733C14.7066 34.2411 15.4589 35.5875 16.7887 38.1404C17.8449 40.16 18.7491 41.8874 18.8023 41.9763C18.8783 42.116 18.9619 41.9509 19.243 41.0745L19.5926 39.9821L19.1443 38.4072C18.8935 37.5308 18.6883 36.7433 18.6883 36.6544C18.6883 36.5528 18.8099 36.1463 18.9543 35.7399C19.2354 34.9651 19.3038 34.2284 19.1443 33.733C18.9923 33.2631 18.4452 33.5679 18.202 34.2665C18.126 34.4697 18.0424 34.6348 18.0121 34.6348C17.9817 34.6348 17.8145 34.1014 17.6473 33.4536L17.3434 32.2851L17.6397 31.5357C18.126 30.3545 18.1108 29.3002 17.6169 29.3002C17.3282 29.3002 16.9862 29.6305 16.857 30.0242C16.7811 30.2656 16.6367 30.4307 16.6367 30.2656C16.6367 30.2401 16.4163 29.4527 16.1504 28.5128L15.664 26.7981L16.5303 24.0164C17.2978 21.5524 17.3966 21.1586 17.3966 20.5998C17.3966 19.3677 17.0546 19.0883 16.3707 19.7869C16.0516 20.1044 15.8084 20.5998 14.8586 22.8098L13.7188 25.439L12.6169 25.7184C12.0014 25.8709 11.4695 25.9979 11.4163 25.9979C11.3555 25.9979 11.3707 25.8328 11.4695 25.4517C11.7279 24.5118 11.6367 23.7116 11.272 23.7116C10.854 23.7116 10.5805 24.08 10.2157 25.1088L9.86619 26.1122L9.37227 26.1884C9.09871 26.2392 8.86315 26.2519 8.83276 26.2138C8.80996 26.1757 9.14431 25.5533 9.57744 24.8293C10.93 22.5685 12.5941 20.6633 14.851 18.7581C20.4361 14.0458 28.2324 11.0356 36.8874 10.2608C38.5591 10.1084 43.2019 10.1084 44.866 10.2481ZM17.0926 20.5363C17.0926 21.0951 16.9938 21.4762 16.2111 23.9656L15.3297 26.76L15.7324 28.1952C15.9528 28.97 16.2415 30.0369 16.3859 30.5577L16.6443 31.4849L16.933 30.7355C17.0926 30.3164 17.2826 29.9353 17.3586 29.8972C17.8221 29.5924 17.8221 30.2147 17.3434 31.3579L16.9938 32.2216L17.4421 33.9363C17.6853 34.8762 17.9133 35.651 17.9437 35.651C17.9741 35.651 18.1336 35.3207 18.3008 34.9016C18.9391 33.3266 19.2051 34.0252 18.6124 35.7272L18.3008 36.6163L18.7719 38.2929L19.243 39.9694L19.0683 40.6045C18.9695 40.9602 18.8631 41.2269 18.8327 41.2142C18.8023 41.1888 17.9437 39.5757 16.9178 37.6197C14.3039 32.6026 13.7947 31.9929 13.1261 33.0091C12.9741 33.2377 12.3738 34.6984 11.7811 36.2352L10.7021 39.0549L11.272 41.0364L11.8419 43.0305L11.6747 43.6656L11.5075 44.3006L10.6717 43.0686C10.2157 42.3954 9.7826 41.7603 9.71421 41.6587C9.60783 41.5063 9.55464 41.519 9.31148 41.7603L9.03792 42.0271V41.5825C9.03792 41.0618 9.12911 41.1126 7.59416 40.7315C6.98626 40.5791 6.47714 40.4267 6.46195 40.4013C6.44675 40.3759 6.56833 40.0838 6.7355 39.7535L7.03945 39.1439L7.82972 38.9914C8.26285 38.9152 8.90115 38.8136 9.25069 38.7628L9.87379 38.6739L10.8616 35.308C11.4087 33.4409 11.8495 31.8024 11.8495 31.65C11.8495 31.2563 11.5835 30.7355 11.2568 30.4561C10.6641 29.9734 9.97257 29.8083 6.88748 29.4273C5.71727 29.2875 4.68384 29.1732 4.57746 29.1732H4.39509L4.63065 28.4238L4.87381 27.6745L5.60329 27.522C7.3586 27.1664 7.13824 27.2934 7.45738 26.5059C7.92851 25.3628 8.12607 24.9818 8.24765 24.9818C8.46802 24.9818 8.44522 25.3755 8.17167 26.1376C8.01969 26.5694 7.90571 26.9505 7.92851 26.9759C7.9513 27.0267 9.50905 26.7092 9.91178 26.5694C10.003 26.5313 10.2081 26.1249 10.4285 25.4898C10.7856 24.4991 10.9528 24.2197 11.196 24.2197C11.3935 24.2197 11.3403 24.7912 11.0516 25.7438C10.816 26.5313 10.8008 26.6329 10.9224 26.6329C11.3707 26.6329 13.9391 25.8582 13.9923 25.7057C14.0227 25.6168 14.5318 24.4102 15.1245 23.0257C15.93 21.1713 16.2871 20.4473 16.5151 20.2187C17.0014 19.7361 17.0926 19.7869 17.0926 20.5363ZM9.26589 30.2528C10.7628 30.5323 11.5455 30.9895 11.5455 31.5738C11.5455 31.7389 9.7902 37.9626 9.69142 38.1531C9.68382 38.1785 9.2051 38.2675 8.62759 38.3564L7.57896 38.5215L7.43459 37.9753C6.87988 35.8034 6.79629 33.2758 7.21422 30.9514L7.3738 30.0623H7.80693C8.04249 30.0623 8.70358 30.1512 9.26589 30.2528Z" fill="black"/>
<path d="M27.8524 15.9256C27.8296 16.0526 27.7916 17.7165 27.7612 19.609L27.708 23.0765H28.4071C29.3113 23.0765 38.749 23.4195 40.5195 23.5211L41.8645 23.5973V19.9012C41.8645 17.8816 41.8569 16.2178 41.8493 16.2178C41.7885 16.2051 28.4831 15.7097 28.2095 15.7097C27.974 15.7097 27.8828 15.7605 27.8524 15.9256Z" fill="#E73136"/>
<path d="M44.0983 18.7835C44.1287 20.4728 44.1667 22.0731 44.1895 22.3272L44.2275 22.7971L45.5725 22.8733C46.3096 22.9114 48.1637 22.9876 49.691 23.0258L52.4646 23.102L52.8521 23.7624C53.498 24.8675 53.5892 26.3027 53.1256 27.9539L52.8977 28.7668L52.6013 28.716C52.4418 28.6906 50.7092 28.589 48.7412 28.4747C46.7807 28.3731 44.919 28.2587 44.6226 28.2333C44.3187 28.1952 44.0603 28.1825 44.0603 28.1952C44.0451 28.2206 43.7108 48.1492 43.7184 48.1873C43.7336 48.2254 49.4782 48.4921 49.5086 48.4413C49.5238 48.4159 49.6074 45.52 49.6986 41.989C49.7822 38.4707 49.8582 35.5748 49.8658 35.5621C49.8734 35.5494 50.9068 35.4859 52.1606 35.3969C53.4144 35.3207 54.6302 35.2064 54.8582 35.1302C56.6135 34.5714 58.232 33.1488 59.0451 31.4341C59.425 30.6339 59.8201 29.2495 59.9417 28.3095C60.4584 24.207 58.8627 19.3042 56.3551 17.2339C55.2001 16.2813 55.0861 16.2686 49.843 16.04C47.2746 15.9257 44.919 15.7986 44.6074 15.7605L44.0451 15.6843L44.0983 18.7835Z" fill="#E73136"/>
<path d="M27.518 36.3114L27.5408 43.8434L27.746 44.5674C28.1563 46.0407 28.8858 47.1204 29.9952 47.8951C31.4314 48.9113 32.1609 49.0637 36.1502 49.1907L38.901 49.2796V47.5141C38.901 46.5361 38.9238 44.8468 38.9542 43.7418L38.9998 41.7477H37.1305C35.4207 41.7477 35.2232 41.7223 34.866 41.4809C34.3113 41.1253 34.0682 40.8077 33.6806 39.9186L33.3311 39.1439L33.3843 34.0506L33.4375 28.9573L31.7809 28.8811C30.8691 28.8303 29.5317 28.7922 28.8098 28.7922H27.4952L27.518 36.3114Z" fill="#E73136"/>
<path d="M14.5697 11.0356L13.0044 12.1914L13.088 12.5216C13.1336 12.6995 13.1792 12.8646 13.1868 12.89C13.1944 12.9154 13.4907 12.7249 13.8327 12.4835C14.1822 12.2295 14.4862 12.0644 14.5165 12.1152C14.5469 12.1787 14.7521 12.9281 14.9725 13.8045C15.1852 14.6809 15.3904 15.443 15.4208 15.4938C15.4816 15.6081 16.0287 15.2143 16.0287 15.0492C16.0287 14.9857 15.8387 14.1855 15.6032 13.271C15.3752 12.3565 15.208 11.569 15.246 11.5182C15.2764 11.4547 15.5652 11.2388 15.8843 11.0102L16.4694 10.6037L16.3858 10.2354C16.3402 10.0322 16.2643 9.86704 16.2187 9.87974C16.1807 9.87974 15.436 10.4005 14.5697 11.0356Z" fill="black"/>
<path d="M65.3749 10.083C65.185 10.4132 64.9646 11.2769 64.9646 11.7342C64.9646 12.2422 65.0406 12.3311 66.2564 13.2329L67.229 13.9569L67.115 14.4142C67.0542 14.6809 66.9935 14.8968 66.9783 14.9222C66.9631 14.9476 66.5071 14.6428 65.96 14.2364C65.0558 13.5759 64.9722 13.487 65.0102 13.2329C65.0482 12.9789 65.0178 12.9408 64.767 12.8646C64.4479 12.763 64.3567 12.89 64.3567 13.4616C64.3567 13.9569 64.5239 14.1474 65.7473 15.0365C66.7655 15.7859 67.1682 15.951 67.3734 15.7351C67.495 15.6081 67.8521 14.3126 67.8521 13.9823C67.8521 13.5251 67.6773 13.3091 66.6439 12.5344C66.0816 12.1152 65.6105 11.7469 65.5953 11.7215C65.5725 11.6961 65.6181 11.4674 65.6789 11.2134L65.7929 10.7562L66.2336 11.0864C66.4767 11.2642 66.8871 11.5564 67.153 11.7469C67.571 12.039 67.6242 12.1152 67.5938 12.3565C67.5558 12.5852 67.5938 12.6487 67.7837 12.7122C68.2017 12.8519 68.2321 12.8265 68.2321 12.2803C68.2321 11.8993 68.1941 11.7342 68.0649 11.5945C67.7989 11.3023 65.7777 9.86706 65.6333 9.86706C65.5649 9.86706 65.4509 9.96867 65.3749 10.083Z" fill="black"/>
<path d="M8.90881 46.2815C8.87081 46.4849 8.85562 46.7518 8.87081 46.8789C8.89361 47.0823 8.92401 47.0569 9.00759 46.7137C9.06838 46.4849 9.11397 46.2052 9.11397 46.1163C9.11397 45.8112 8.9772 45.9256 8.90881 46.2815Z" fill="black"/>
<path d="M9.34193 46.8917C9.23555 47.3617 9.30394 47.6792 9.5091 47.6665C9.63828 47.6538 9.70667 47.7808 9.81305 48.2508C9.95743 48.924 10.1018 50.9435 10.1018 52.4296C10.1018 52.9757 10.1246 53.433 10.1626 53.433C10.193 53.433 10.5577 53.2552 10.9757 53.0519C11.7431 52.6836 11.8495 52.5185 11.1124 52.8487C10.8997 52.9503 10.7021 52.9884 10.6793 52.9503C10.6565 52.9122 10.6337 52.5312 10.6337 52.112C10.6337 50.9308 10.4134 48.2508 10.2842 47.8317C10.1854 47.5014 10.1398 47.4633 9.79786 47.4633C9.42552 47.4633 9.41792 47.4633 9.5091 47.1458C9.57749 46.9044 9.57749 46.7901 9.5091 46.6758C9.44831 46.5742 9.40272 46.625 9.34193 46.8917Z" fill="black"/>
<path d="M70.9982 48.7457C71.0741 49.394 71.2109 49.5338 71.1805 48.9364C71.1653 48.644 71.1121 48.4152 71.0514 48.3771C70.9678 48.3262 70.9526 48.4152 70.9982 48.7457Z" fill="black"/>
<path d="M70.489 49.0383C70.4662 49.1272 70.4966 49.432 70.5498 49.6988L70.6486 50.1941L70.7017 49.8385C70.7929 49.2415 70.603 48.5175 70.489 49.0383Z" fill="black"/>
<path d="M11.4466 49.3685C11.7429 49.5717 11.9253 51.1975 11.9253 53.6108V55.2493L12.3812 55.1604C13.8706 54.8809 15.3448 53.7124 15.3448 52.836C15.3448 52.2771 14.8736 51.8326 14.4329 51.9723L14.167 52.0612L14.3721 52.239C14.79 52.6074 14.6913 53.4457 14.167 54.0553C13.8706 54.3856 13.0727 54.8301 12.7536 54.8301H12.5332V53.9537C12.5332 52.9122 12.3357 50.2957 12.2217 49.7877C12.1153 49.3177 12.0317 49.2415 11.6214 49.2542C11.3478 49.2542 11.3098 49.2796 11.4466 49.3685Z" fill="black"/>
<path d="M70.1699 52.0104C69.9343 52.2644 69.41 53.1662 69.3644 53.4203C69.3416 53.5346 69.2732 53.5473 69.1289 53.4457C68.9085 53.306 68.8249 53.4076 68.7033 53.941C68.6425 54.2078 68.6653 54.2713 68.8705 54.4491C68.9997 54.5507 69.1592 54.8301 69.22 55.046C69.2808 55.2747 69.3568 55.4652 69.3872 55.4652C69.41 55.4652 69.5012 55.262 69.5924 55.0206C69.7596 54.5507 69.7368 54.2967 69.5088 53.8648C69.3644 53.5981 69.3644 53.5981 69.638 53.1916C69.8279 52.9122 69.9875 52.7979 70.1775 52.7979C70.5042 52.7979 70.8158 53.2678 70.8158 53.7759V54.1188L70.9754 53.8648C71.0589 53.7124 71.1501 53.3568 71.1729 53.0773C71.2109 52.6201 71.1881 52.5058 70.9829 52.1628C70.717 51.731 70.4966 51.6802 70.1699 52.0104Z" fill="black"/>
<path d="M67.5482 54.5126C67.4495 54.6904 67.4115 54.8301 67.4571 54.8301C67.5026 54.8301 67.6166 55.0714 67.7078 55.3509L67.8674 55.8716L67.6546 56.24C67.2063 57.0148 66.8568 56.9386 66.5984 55.9859C66.4388 55.389 66.2489 55.3128 66.0665 55.77C65.9525 56.0622 65.9525 56.1003 66.1197 56.3797C66.2185 56.5448 66.3552 56.875 66.4236 57.091C66.6212 57.7133 66.8643 57.6371 67.4039 56.7734C67.7534 56.2273 67.875 56.0876 67.9434 56.2019C68.1029 56.4686 68.3461 56.367 68.6197 55.897C68.8628 55.4779 68.8628 55.4525 68.6805 55.5668C68.4145 55.7446 68.2929 55.5922 68.0802 54.8428C67.9814 54.4872 67.8598 54.195 67.8142 54.195C67.7686 54.195 67.647 54.3348 67.5482 54.5126Z" fill="black"/>
<path d="M14.1747 54.8936C13.8783 55.1604 13.7567 55.4525 13.7491 55.9225C13.7491 56.6464 14.4406 57.3831 15.1169 57.3577C15.5273 57.345 15.5349 57.345 15.2461 57.2307C14.9118 57.1037 14.4938 56.7607 14.4178 56.5575C14.3874 56.4813 14.357 56.2654 14.357 56.0622C14.357 55.7954 14.395 55.7192 14.5318 55.7065C14.6686 55.6938 14.6686 55.6811 14.5622 55.6303C14.4254 55.5668 14.4254 55.5541 14.5546 55.3255C14.7218 55.0079 14.9725 55.0207 15.2233 55.3509C15.4513 55.6557 15.4741 55.8081 15.2917 55.8716C15.2157 55.897 15.3601 55.986 15.6108 56.0622C15.8616 56.1384 16.082 56.1765 16.0972 56.1511C16.1883 56.0114 15.8236 55.4398 15.4589 55.1477C14.9346 54.7158 14.471 54.6269 14.1747 54.8936Z" fill="black"/>
<path d="M14.7978 55.8082C14.8434 55.8335 14.9346 55.8335 14.9878 55.8082C15.0334 55.7703 14.9954 55.745 14.889 55.745C14.7826 55.745 14.7446 55.7703 14.7978 55.8082Z" fill="black"/>
<path d="M17.3737 57.4974C17.1989 57.726 17.1609 57.8658 17.1837 58.2468C17.2065 58.6532 17.2521 58.7422 17.5485 58.9835C17.8068 59.2121 18.0044 59.2756 18.3843 59.2629L18.8782 59.2502L18.4603 59.1486C17.8372 58.9962 17.5789 58.3484 17.8296 57.5863C17.8904 57.4085 18.3311 57.5101 18.6199 57.7768C18.8782 58.0182 18.9162 58.1071 18.9162 58.5262C18.9162 59.7837 19.1214 60.1647 19.8053 60.1647L20.17 60.152L19.9421 59.9869C19.5773 59.7202 19.4861 59.4534 19.4937 58.6405L19.5013 57.9166L19.1138 57.6244C18.8554 57.4212 18.5363 57.3069 18.1564 57.2688C17.6548 57.218 17.5637 57.2561 17.3737 57.4974Z" fill="black"/>
<path d="M59.638 58.7041C58.8098 59.0089 58.4526 59.2375 58.2855 59.5805C58.1715 59.8091 58.1943 59.8218 58.445 59.6694C58.5438 59.6186 58.7566 59.5297 58.9237 59.4788L59.2201 59.3772L58.901 59.9615C58.4982 60.6855 58.4678 61.257 58.787 61.6889C58.9541 61.9048 59.0605 61.9429 59.2961 61.8794C59.638 61.7905 60.2611 61.2698 60.4587 60.9014C60.5651 60.6982 60.5271 60.7109 60.1699 60.9776C59.6836 61.3587 59.4937 61.3841 59.2809 61.0792C58.8554 60.495 59.0833 59.5551 59.7368 59.2248C60.0788 59.047 60.7398 58.3611 60.5195 58.3992C60.4815 58.4119 60.0788 58.5516 59.638 58.7041Z" fill="black"/>
<path d="M20.626 58.7295C20.4209 58.8184 20.2917 59.0216 20.4513 59.0216C20.702 59.0216 20.7552 59.3391 20.626 60.1012C20.5576 60.495 20.5196 60.8506 20.5348 60.8887C20.5576 60.9268 20.6716 60.9014 20.7932 60.8379C20.9604 60.7363 21.0212 60.5839 21.1199 60.0377C21.1883 59.6694 21.2795 59.3391 21.3327 59.301C21.3859 59.2756 21.5455 59.428 21.6823 59.6313C22.0318 60.1393 22.3357 60.2409 22.6549 59.9615L22.9057 59.7329L22.6701 59.6567C22.5409 59.6059 22.3509 59.4789 22.2522 59.3645C22.1382 59.2248 21.9254 59.1486 21.6747 59.1486C21.3251 59.1486 21.2719 59.1105 21.2719 58.8946C21.2719 58.6914 21.2263 58.6406 21.0288 58.6533C20.892 58.666 20.7096 58.6914 20.626 58.7295Z" fill="black"/>
<path d="M27.2901 59.0089C26.8873 59.4408 26.8189 60.1012 27.1533 60.4823C27.2369 60.5839 27.7156 60.9395 28.2019 61.2571C29.2201 61.9175 29.4405 62.2351 29.3189 62.8193C29.1897 63.4417 28.749 63.6576 28.1411 63.3909C27.6852 63.2004 27.4268 62.9591 27.0849 62.4256C26.8721 62.0954 26.8341 62.0827 26.553 62.2097L26.249 62.3494L26.5834 62.8447C27.5484 64.28 29.5165 64.1022 29.7444 62.578C29.828 61.9937 29.6685 61.6 29.1973 61.2063C28.9542 61.003 28.673 60.7871 28.5666 60.7363C27.8144 60.368 27.4496 59.8853 27.5408 59.4027C27.67 58.7422 28.4755 58.8946 28.9998 59.6821C29.129 59.8853 29.2277 59.9234 29.4329 59.8599C29.8508 59.7329 29.828 59.5551 29.3493 59.1867C28.7338 58.7041 27.6624 58.6279 27.2901 59.0089Z" fill="black"/>
<path d="M50.056 60.0631L49.7672 60.4568L50.0408 60.8506C50.2915 61.2189 50.3143 61.3205 50.4207 62.5145C50.5651 64.1784 50.5575 64.153 50.907 64.4197C51.3174 64.7245 51.5225 64.6102 52.0544 63.7465C52.442 63.1114 52.5028 62.9463 52.5028 62.5526C52.5028 61.6127 51.9329 61.4094 51.2946 62.1207C50.8614 62.6161 50.8766 62.6415 50.793 61.3713C50.6791 59.5677 50.5575 59.3645 50.056 60.0631ZM51.9557 62.5272C52.1456 62.7431 52.1912 63.429 52.0316 63.6957C51.9177 63.8862 51.4313 63.8989 51.1806 63.7084C50.9906 63.556 50.8462 62.959 50.945 62.705C51.0894 62.3239 51.6897 62.2096 51.9557 62.5272Z" fill="black"/>
<path d="M23.2779 59.9615C22.9815 60.1774 22.7156 60.7363 22.7156 61.1428C22.7156 61.8413 23.6122 62.5653 24.2581 62.3748L24.5773 62.2859L24.0834 62.1208C23.4982 61.9175 23.2855 61.5873 23.3539 61.003C23.4527 60.2282 23.8478 59.9361 24.2201 60.368C24.4709 60.6601 24.4253 60.7871 24.0302 60.8379C23.825 60.8633 23.977 60.8887 24.3721 60.9014C24.752 60.9141 25.0712 60.876 25.0712 60.8252C25.0712 60.7617 25.0104 60.622 24.9344 60.5077C24.5773 59.9615 23.673 59.6694 23.2779 59.9615Z" fill="black"/>
<path d="M47.0545 60.3806C46.895 60.5585 46.8874 60.6474 46.9254 61.4857C46.9786 62.5526 46.8342 63.3401 46.3479 64.5975L46.0515 65.3723L46.4466 64.9913C46.9254 64.5467 47.5713 64.153 48.2248 63.9243C48.6579 63.7719 48.7111 63.7719 48.8251 63.9878C49.2202 64.7118 49.9649 64.9023 50.2688 64.3435C50.3828 64.1403 50.3828 64.1022 50.284 64.1657C49.9269 64.3943 48.7491 62.9717 47.8448 61.2189C47.5409 60.6474 47.2825 60.1647 47.2597 60.1774C47.2369 60.1774 47.1457 60.2663 47.0545 60.3806ZM48.3615 63.4544C48.3083 63.5306 46.8494 64.3435 46.8266 64.3054C46.819 64.2927 46.933 63.9751 47.0773 63.6068C47.2293 63.2385 47.3965 62.7304 47.4649 62.4891L47.5713 62.0318L47.9816 62.705C48.2096 63.086 48.3767 63.4163 48.3615 63.4544Z" fill="black"/>
<path d="M57.1912 60.3044C57.1 60.3934 57.0772 60.4823 57.1228 60.5839C57.1608 60.6728 57.2216 60.9776 57.252 61.2698C57.2976 61.7778 57.29 61.8159 57.0468 62.0699C56.91 62.2097 56.6745 62.324 56.5225 62.324C56.2261 62.324 56.1425 62.1462 56.0362 61.2062C55.9754 60.7236 55.8006 60.6728 55.5346 61.0538C55.3675 61.2825 55.3599 61.3206 55.4815 61.4349C55.5574 61.5111 55.641 61.8032 55.6638 62.0826C55.7626 63.1115 56.0286 63.1877 56.796 62.4383C57.0924 62.1462 57.3355 61.981 57.3507 62.0572C57.3659 62.1334 57.4419 62.2605 57.5255 62.324C57.6775 62.4637 57.8523 62.3621 58.2018 61.9175L58.3918 61.6635L58.179 61.7524C57.8903 61.8794 57.7687 61.6635 57.6699 60.8506C57.5787 60.1393 57.4799 60.025 57.1912 60.3044Z" fill="black"/>
<path d="M53.8932 61.3078C53.2321 61.7016 52.7306 62.4383 52.7306 63.0225C52.7306 63.175 52.8142 63.429 52.9206 63.5941C53.0801 63.8354 53.2017 63.8989 53.5133 63.8989C54.2503 63.8989 55.1622 62.7685 55.1622 61.854C55.1622 61.0665 54.6531 60.8506 53.8932 61.3078ZM54.3263 61.6254C54.6531 61.9048 54.7595 62.7812 54.5163 63.2004C54.3871 63.429 53.8172 63.4417 53.5817 63.2258C53.1941 62.8828 53.2321 61.9429 53.6424 61.6C53.8932 61.3841 54.0604 61.3968 54.3263 61.6254Z" fill="black"/>
<path d="M35.8082 61.8407C35.6107 62.006 35.5803 62.3492 35.7399 62.5652C35.8234 62.6923 35.9222 62.6542 36.1806 62.4381C36.4465 62.1966 36.4769 62.1331 36.3554 62.0949C36.2718 62.0695 36.173 61.9678 36.1426 61.8661C36.0742 61.6628 36.0362 61.6628 35.8082 61.8407Z" fill="black"/>
<path d="M30.3295 62.2732C30.056 62.5145 29.8584 63.0225 29.8584 63.5179C29.8584 64.1657 30.5727 64.6991 31.2566 64.5594C31.7961 64.4578 31.8721 64.2546 31.3706 64.2546C30.8386 64.2546 30.5575 64.0641 30.4967 63.6576C30.3523 62.6923 30.831 61.9937 31.287 62.5272C31.5529 62.832 31.4845 62.959 31.059 62.959C30.8462 62.959 30.6867 62.9971 30.7171 63.0352C30.7399 63.0733 31.0818 63.0733 31.4845 63.0225C32.2748 62.9209 32.3432 62.7939 31.8493 62.3875C31.4465 62.0699 30.6487 62.0064 30.3295 62.2732Z" fill="black"/>
<path d="M32.8295 62.8193L32.5712 63.048L32.7687 63.1369C32.9663 63.2131 32.9739 63.2512 32.9739 64.1022C32.9739 64.5975 32.9891 64.9913 33.0119 64.9913C33.0271 64.9913 33.1335 64.9278 33.2399 64.8389C33.3766 64.7372 33.4298 64.5975 33.4298 64.3562C33.4298 63.7719 33.521 63.2004 33.6274 63.1242C33.6806 63.0988 33.8174 63.1877 33.9389 63.3274C34.0605 63.4798 34.2809 63.6322 34.4253 63.6703C34.6532 63.7338 34.7444 63.683 34.942 63.3909L35.1851 63.0226L34.8584 62.9844C34.676 62.959 34.3037 62.9463 34.0225 62.9336C33.673 62.9209 33.4982 62.8701 33.4754 62.7558C33.4222 62.5145 33.1411 62.5399 32.8295 62.8193Z" fill="black"/>
<path d="M35.8614 63.0479C35.6182 63.2004 35.5574 63.3528 35.6714 63.5433C35.7626 63.6957 35.7626 63.7973 35.6714 64.2292C35.6106 64.5086 35.5802 64.8261 35.603 64.9278C35.6638 65.1691 35.8918 65.2834 36.1653 65.1818C36.4313 65.0802 36.5453 64.8643 36.3249 64.8643C36.1045 64.8643 36.0666 64.6864 36.1729 64.1022C36.2413 63.7211 36.2413 63.5179 36.1805 63.2766C36.0893 62.9463 36.059 62.9336 35.8614 63.0479Z" fill="black"/>
<path d="M37.8144 63.0988C36.7961 63.4925 36.3934 64.5975 37.0241 65.258C37.5636 65.8296 38.711 65.3215 39.1518 64.3308C39.5697 63.4036 38.8098 62.705 37.8144 63.0988ZM38.4755 63.5306C38.7262 63.9117 38.7414 64.5594 38.5135 64.9786C38.3767 65.2199 38.3007 65.258 38.0727 65.1818C37.5712 65.0294 37.2445 64.4832 37.3433 63.9625C37.4876 63.2004 38.1031 62.959 38.4755 63.5306Z" fill="black"/>
<path d="M43.3917 63.1241C43.1258 63.2638 42.6243 63.9751 42.6243 64.2038C42.6243 64.28 42.8218 64.3689 43.065 64.4197C43.9389 64.5721 44.2048 64.8388 43.8021 65.1437C43.6501 65.258 43.5285 65.258 43.2626 65.1437C42.9206 64.9912 42.6243 65.0929 42.6243 65.3723C42.6243 65.6009 43.4449 65.512 43.8553 65.2453C44.7975 64.6483 44.8051 64.2165 43.8629 63.9878C43.2854 63.8481 43.0422 63.6703 43.1258 63.4544C43.179 63.302 43.7033 63.302 43.9389 63.4544C44.0756 63.5433 44.1744 63.5179 44.3264 63.3528C44.5012 63.1622 44.5164 63.1114 44.41 63.0352C44.2276 62.9209 43.6881 62.959 43.3917 63.1241Z" fill="black"/>
<path d="M39.7141 63.3528C39.6153 63.4544 39.6001 63.5306 39.6609 63.7211C39.6989 63.8481 39.7369 64.2165 39.7369 64.534C39.7369 65.004 39.7673 65.1437 39.9268 65.3215C40.1016 65.512 40.1472 65.512 40.5879 65.2707L41.0666 65.0167L40.7095 65.004C40.2764 64.9913 40.1928 64.8007 40.1928 63.8608C40.1928 63.2766 40.1776 63.2131 40.0256 63.2131C39.9268 63.2131 39.7901 63.2766 39.7141 63.3528Z" fill="black"/>
<path d="M41.401 63.2385C41.3706 63.4036 41.363 64.8642 41.3934 65.0929C41.4086 65.2453 41.4998 65.4104 41.5985 65.4485C41.7581 65.512 42.3204 65.2072 42.3204 65.0548C42.3204 65.0167 42.29 65.0167 42.2444 65.0548C42.2064 65.0929 42.1077 65.0675 42.0241 64.9913C41.9025 64.8896 41.8645 64.6991 41.8493 64.0641C41.8265 63.3147 41.8189 63.2766 41.6213 63.2385C41.4998 63.2131 41.4086 63.2131 41.401 63.2385Z" fill="black"/>
<path d="M72.0619 2.91938C71.6136 3.28772 71.1805 4.07521 71.0589 4.77379C70.9145 5.54858 70.9449 6.6663 71.1273 7.28867C71.8796 9.87976 74.1972 9.63844 74.7367 6.90763C74.9647 5.7391 74.7823 4.43085 74.258 3.56715C73.8856 2.93208 73.5741 2.71616 72.9814 2.66535C72.5331 2.62725 72.3887 2.66535 72.0619 2.91938ZM73.5893 3.37663C74.1516 3.79578 74.5391 4.82459 74.5391 5.86611C74.5391 6.43768 74.372 7.32678 74.2656 7.32678C74.2352 7.32678 74.0224 7.08545 73.7944 6.78061L73.3689 6.24715L73.6349 6.20905C74.0148 6.14554 74.0832 5.99313 74.0832 5.15483C74.0832 4.55786 74.0528 4.39275 73.9388 4.27843C73.8552 4.21493 73.3613 4.15142 72.837 4.15142H71.8796V5.8026V7.45379H72.1075C72.3279 7.45379 72.3355 7.44109 72.3355 6.81872C72.3355 6.19635 72.3355 6.18365 72.5786 6.18365C72.761 6.18365 72.9054 6.33606 73.2169 6.81872C73.5665 7.37758 73.6577 7.45379 73.9388 7.45379H74.258L74.0756 7.78403C73.7793 8.31749 73.3765 8.59692 72.8978 8.59692C72.0847 8.59692 71.4996 7.84753 71.3021 6.53929C70.9601 4.34194 72.3431 2.42402 73.5893 3.37663ZM73.5361 4.77379C73.5969 4.8373 73.6273 5.04052 73.6121 5.24374L73.5893 5.61208L72.9662 5.65019L72.3355 5.68829V5.25644C72.3355 5.02782 72.3583 4.78649 72.3887 4.74839C72.4571 4.62137 73.4221 4.64677 73.5361 4.77379Z" fill="black"/>
</svg>
