<svg width="82" height="68" viewBox="0 0 82 68" fill="none" xmlns="http://www.w3.org/2000/svg">
<path d="M37.0294 0.120937C26.0568 0.908426 15.7832 5.51905 8.84558 12.7716C-0.402102 22.4374 -2.57534 35.5325 3.16171 46.9765C8.42005 57.4679 19.8486 65.1777 33.192 67.2226C36.6874 67.7561 42.2573 67.9212 45.236 67.5782C54.9396 66.4478 62.8423 63.2089 69.324 57.7092C75.897 52.1333 79.8635 45.1475 80.8741 37.3234C81.0489 35.9898 81.1021 33.1701 80.9957 31.684C80.6538 27.2004 79.2632 22.8819 76.8468 18.8428C73.6325 13.4447 68.9821 9.03734 62.9791 5.68416C55.3651 1.44189 46.1934 -0.526835 37.0294 0.120937ZM43.9062 0.616293C55.3803 1.46729 65.6842 6.19222 72.6295 13.7877C77.2571 18.8555 80.0155 24.8506 80.6462 31.214C80.8362 33.0811 80.7678 35.9898 80.5018 37.768C79.3468 45.4777 75.2131 52.4 68.5642 57.7727C66.7329 59.2588 63.9517 61.1386 63.0247 61.5324C62.8119 61.6213 62.8119 61.6213 62.9335 61.3037C63.0399 61.0243 63.0399 60.9481 62.9031 60.3384C62.8195 59.9701 62.7511 59.6017 62.7511 59.5001C62.7511 59.3985 63.1463 59.1064 63.7998 58.7253C64.9928 58.0268 65.3119 57.7854 65.5171 57.4044L65.6614 57.1377L65.2511 57.379C65.0232 57.506 64.3469 57.9124 63.7466 58.2681C62.9031 58.7761 62.6371 58.8905 62.5916 58.7634C62.5536 58.6745 62.4016 58.0014 62.2572 57.2647L61.9761 55.9437L62.2344 55.5881C62.7587 54.8641 63.4426 54.4831 64.2405 54.4704C64.6584 54.4704 64.7192 54.4323 64.9548 54.0258L65.2131 53.5813H64.8332C64.1265 53.5813 63.2754 54.1401 62.4016 55.1816L61.9381 55.7278L61.8545 55.423C61.7177 54.9276 61.5885 55.0292 61.163 55.9564L60.9198 56.4899L61.2086 56.528L61.4973 56.5661L62.0444 59.1572C62.3484 60.5924 62.5916 61.761 62.5764 61.7737C62.4548 61.9388 60.1144 63.0692 58.5034 63.7424C52.7664 66.143 47.1585 67.2353 40.5248 67.2226C35.5324 67.2226 31.885 66.7272 27.4473 65.4571C13.6024 61.4815 3.2149 51.295 0.86689 39.3938C0.433761 37.171 0.334977 36.1295 0.327378 33.8305C0.327378 31.5062 0.486952 30.0201 0.950476 27.9244C3.70122 15.5151 14.6282 5.44284 29.2786 1.83563C33.7467 0.730606 39.2406 0.273355 43.9062 0.616293Z" fill="white"/>
<path d="M40.403 4.00756C40.099 4.83315 39.7039 5.88737 39.5291 6.35732L39.2024 7.19562L39.5443 7.24642C39.8787 7.28453 39.8939 7.27183 40.0762 6.75107L40.2662 6.20491H41.2465H42.2343L42.3863 6.71296C42.5686 7.32263 42.637 7.37344 43.0626 7.32263L43.3817 7.28453L42.5154 4.93476L41.6492 2.585L41.3072 2.54689L40.9577 2.50879L40.403 4.00756ZM41.634 4.52832L41.9455 5.44282H41.2465H40.5474L40.7601 4.83315C40.8741 4.50291 41.0261 4.08377 41.0869 3.89324C41.1553 3.69002 41.2389 3.55031 41.2693 3.57571C41.3072 3.58841 41.4668 4.02026 41.634 4.52832Z" fill="white"/>
<path d="M35.8971 2.73742L35.6768 2.80092L35.7224 5.08718C35.7527 6.35732 35.7907 7.41154 35.8059 7.43695C35.8211 7.47505 36.505 7.44965 37.3257 7.39884L38.815 7.30993V6.86538V6.42083L37.6448 6.50974L36.4746 6.59865L36.4214 4.62993C36.3606 2.47069 36.3986 2.6104 35.8971 2.73742Z" fill="white"/>
<path d="M44.5671 3.18195C44.5367 3.48679 44.4987 4.56641 44.4684 5.59522L44.4152 7.47504H44.7191H45.0231L45.0687 6.42082C45.099 5.84925 45.1218 5.09987 45.1218 4.74423V4.12186L45.4866 4.69342C45.6842 5.01096 46.2237 5.82385 46.6948 6.49703C47.3635 7.47504 47.5838 7.72906 47.7662 7.72906C47.9258 7.72906 48.0094 7.65286 48.0398 7.50044C48.0626 7.38613 48.1006 6.33191 48.131 5.15067L48.1841 3.02954H47.8802H47.5686L47.5079 4.60451L47.4395 6.19219L46.5656 4.92205C45.2358 2.97873 45.099 2.81361 44.8483 2.7247C44.6127 2.63579 44.6051 2.64849 44.5671 3.18195Z" fill="white"/>
<path d="M32.0901 3.2709L31.0262 3.47413L31.0414 3.85517C31.0566 4.33782 31.3074 8.16095 31.3226 8.19906C31.3302 8.21176 31.4822 8.18636 31.6645 8.14825L31.9913 8.07204L31.9381 7.15754L31.8925 6.24304L32.2572 6.16683C32.4548 6.12872 32.9639 6.02711 33.3743 5.9382C34.3621 5.73498 34.4913 5.55716 34.4305 4.47754C34.4077 4.05839 34.3469 3.58844 34.3013 3.41062C34.2253 3.11849 34.1721 3.09308 33.6858 3.08038C33.3895 3.06768 32.6752 3.15659 32.0901 3.2709ZM33.6326 3.94408C33.6858 4.03299 33.7238 4.31242 33.7238 4.56645C33.7238 5.09991 33.7162 5.09991 32.8499 5.25233C32.5992 5.29043 32.2724 5.35394 32.1205 5.39204L31.8393 5.45555L31.7861 4.87128C31.7633 4.54105 31.7557 4.24891 31.7785 4.21081C31.8089 4.1473 33.0095 3.85517 33.4275 3.80436C33.4882 3.80436 33.5794 3.85517 33.6326 3.94408Z" fill="white"/>
<path d="M49.8181 5.78577C49.7117 7.03052 49.6357 8.08473 49.6585 8.13554C49.6737 8.19905 49.8181 8.23715 49.9776 8.23715H50.2664L50.3576 6.99241C50.4108 6.31924 50.4715 5.62066 50.4943 5.44284C50.5247 5.1507 50.6235 5.29042 51.6797 7.05592C52.5688 8.54199 52.8879 8.99924 53.0323 8.99924C53.2223 8.99924 53.2223 8.98654 53.4199 6.67488C53.5262 5.40473 53.6098 4.35051 53.6022 4.33781C53.5946 4.32511 53.4503 4.2743 53.2831 4.2235L52.9715 4.14729L52.8803 5.51904C52.8272 6.28113 52.7664 7.00511 52.7436 7.13213C52.7132 7.32265 52.47 6.95431 51.6038 5.45554C50.6311 3.75355 50.4791 3.53762 50.2588 3.53762H50.008L49.8181 5.78577Z" fill="white"/>
<path d="M25.4032 5.02368C24.6966 5.26501 24.1039 5.48093 24.0887 5.50633C24.0583 5.55714 24.5902 10.028 24.6358 10.1042C24.6814 10.1932 25.2893 9.88833 25.2893 9.78671C25.2817 9.73591 25.2361 9.34216 25.1829 8.89761C25.0841 8.12283 25.0841 8.11013 25.2437 8.04662C25.3273 8.00851 25.806 7.8434 26.3075 7.66558C27.3105 7.32264 27.5689 7.11941 27.5689 6.64946C27.5689 5.98899 27.4017 4.98557 27.2497 4.76965C27.0446 4.49022 26.923 4.50292 25.4032 5.02368ZM26.8318 5.98899C26.8774 6.28112 26.8774 6.52245 26.8318 6.59866C26.7938 6.66216 26.3607 6.83998 25.8744 7.0178L24.9853 7.30994L24.9473 7.04321C24.9245 6.90349 24.9017 6.61136 24.8941 6.40813L24.8713 6.02709L25.6692 5.74766C26.7026 5.37932 26.7482 5.39202 26.8318 5.98899Z" fill="white"/>
<path d="M55.4183 5.08719C55.3955 5.1761 55.2511 6.21762 55.0915 7.38615C54.8864 8.83412 54.818 9.5454 54.8788 9.5708C54.9244 9.6089 55.5779 9.86293 56.3301 10.1424C57.0824 10.4218 57.7435 10.6885 57.7891 10.7139C57.8423 10.7393 57.9107 10.5996 57.9487 10.3583C58.0171 9.96454 58.0095 9.95184 57.7055 9.79942C57.5307 9.72322 56.9912 9.49459 56.4973 9.31677L55.6007 8.97383L55.6539 8.50388C55.6842 8.24985 55.7298 7.99582 55.7678 7.93231C55.8058 7.85611 56.049 7.89421 56.3833 8.02122C57.1432 8.32606 57.204 8.31336 57.204 7.88151C57.204 7.52587 57.1888 7.51317 56.5505 7.28454L55.897 7.05592L55.9426 6.53516C55.973 6.25573 56.0034 6.0144 56.011 5.989C56.0262 5.97629 56.5429 6.15411 57.1584 6.39544C57.7815 6.63677 58.3134 6.83999 58.3438 6.83999C58.4046 6.83999 58.5262 6.20492 58.4806 6.12871C58.4654 6.10331 57.8575 5.86198 57.128 5.58255C56.3985 5.29042 55.7222 5.03639 55.6235 4.99828C55.5247 4.96018 55.4411 4.99828 55.4183 5.08719Z" fill="white"/>
<path d="M21.9839 6.38272C21.7483 6.49704 21.6876 6.58595 21.7028 6.78917C21.7255 7.0305 22.3031 10.7266 22.3638 10.9933C22.4094 11.222 23.0097 10.9298 23.0097 10.6631C23.0097 10.4472 22.3562 6.34462 22.3107 6.28111C22.3031 6.25571 22.1511 6.30651 21.9839 6.38272Z" fill="white"/>
<path d="M60.0155 7.14481C59.7419 8.36415 59.248 11.1966 59.3012 11.2855C59.3392 11.3363 59.4836 11.4379 59.6204 11.5141C59.8939 11.6665 59.8939 11.6792 60.0991 10.5488C60.1979 9.96453 60.2663 9.92642 60.6538 10.1932C60.8514 10.3329 61.0033 10.6377 61.3149 11.5141C61.7252 12.6445 61.7252 12.6572 62.1963 12.9113C62.751 13.2034 62.7586 13.2542 62.1203 11.7935C61.8924 11.2728 61.71 10.8155 61.7252 10.7901C61.7404 10.7647 61.862 10.8155 61.9988 10.8917C62.3255 11.0823 62.6371 11.0696 62.7434 10.8536C62.8574 10.625 63.131 9.27865 63.131 8.92301C63.131 8.75789 63.055 8.54197 62.9638 8.42766C62.8118 8.24984 60.3194 6.83998 60.1523 6.83998C60.1143 6.83998 60.0535 6.97969 60.0155 7.14481ZM61.5352 8.37685C62.4471 8.87221 62.4927 8.94841 62.3483 9.53268C62.2875 9.78671 62.2039 10.0153 62.1659 10.0534C62.1128 10.1169 60.4866 9.30405 60.403 9.17704C60.3878 9.15164 60.4182 8.87221 60.4714 8.55467C60.5322 8.17363 60.6082 7.98311 60.6918 7.98311C60.7602 7.98311 61.1401 8.16093 61.5352 8.37685Z" fill="white"/>
<path d="M18.2224 8.26254C17.4929 8.69439 16.885 9.05003 16.8698 9.06273C16.847 9.08813 17.7437 13.4574 17.7893 13.5209C17.8045 13.5463 17.9564 13.4828 18.1312 13.3685L18.4428 13.1526L18.2604 12.3397L18.0704 11.5268L18.3364 11.3363C18.6935 11.095 18.7467 11.095 19.4914 11.603C19.8561 11.8443 20.2209 12.0476 20.3044 12.0349C20.5704 12.0222 21.2391 11.5776 21.1099 11.5014C21.0491 11.4633 20.7072 11.2728 20.35 11.095C19.5902 10.6885 19.499 10.5742 19.8105 10.4599C20.1221 10.3456 20.426 9.92642 20.426 9.60889C20.426 9.16434 20.1829 7.99581 20.0309 7.72908C19.9549 7.58936 19.8105 7.47505 19.7193 7.48775C19.6282 7.48775 18.9519 7.84339 18.2224 8.26254ZM19.6358 8.94841C19.6965 9.20244 19.7345 9.48187 19.7117 9.57078C19.6662 9.78671 18.002 10.7139 17.9184 10.5742C17.8501 10.4345 17.6677 9.50728 17.7057 9.44377C17.7589 9.35486 19.2558 8.50386 19.385 8.50386C19.4762 8.49116 19.5598 8.65628 19.6358 8.94841Z" fill="white"/>
<path d="M36.4975 9.63429C23.9596 10.7901 13.4961 16.4423 8.74687 24.6093C8.38213 25.2317 8.26815 25.3714 8.26815 25.1808C8.26815 24.5331 7.86542 24.1774 7.50068 24.495C7.3943 24.5966 6.94597 25.6127 6.56603 26.6161C6.55843 26.6161 6.05692 26.7304 5.44142 26.8574C4.82592 26.9844 4.29401 27.1115 4.25601 27.1496C4.14963 27.2766 3.46574 29.3342 3.51133 29.4104C3.53413 29.4485 4.22562 29.5628 5.05388 29.6645C5.88214 29.7661 6.56603 29.8677 6.58123 29.8931C6.59643 29.9058 6.53564 30.3249 6.45205 30.7949C6.05692 32.9922 6.1329 35.8627 6.63442 37.8696C6.7788 38.4538 6.7788 38.4665 6.59643 38.4665C6.50524 38.4665 6.26968 38.8349 5.95053 39.4954C5.67698 40.0669 5.45661 40.5623 5.45661 40.6131C5.45661 40.6639 5.98853 40.8417 6.63442 41.0068L7.80463 41.299L8.04019 41.7816C8.16177 42.0483 8.26815 42.3786 8.26815 42.531C8.26815 42.6961 8.30615 42.785 8.36694 42.7469C8.41253 42.7215 8.76967 43.1788 9.14201 43.7757C13.2681 50.2535 21.0341 55.1308 30.5173 57.1885C40.7072 59.4112 51.8014 58.1284 60.4716 53.721C62.926 52.4762 64.7345 51.2823 66.7786 49.5676C69.0582 47.6624 70.5931 45.9096 72.0141 43.6106C72.9943 42.0229 73.663 40.5496 74.1493 38.9111C74.7116 37.0186 74.8712 35.8627 74.8636 33.767C74.856 32.2809 74.8256 31.8999 74.6509 30.9092C74.2253 28.5467 73.4807 26.5653 72.2497 24.4823C70.7147 21.8912 69.1038 20.0622 66.467 17.8902C61.1631 13.5336 54.2026 10.8028 45.768 9.74861C44.3014 9.57079 38.0781 9.49458 36.4975 9.63429ZM44.4002 10.1424C48.0172 10.4599 51.2999 11.0823 54.3546 12.0603C65.426 15.5659 72.9487 22.7422 74.3925 31.1886C74.5293 32.0015 74.5597 32.4842 74.5597 33.894C74.5597 35.3928 74.5293 35.7484 74.3469 36.7519C73.0627 43.7884 67.5004 50.0121 59.005 53.8988C54.8865 55.7913 50.6388 56.9217 45.3121 57.5441C43.5416 57.7473 37.6221 57.7473 35.7756 57.5441C25.031 56.3375 16.0797 52.0063 10.8441 45.4904C10.0919 44.5632 8.80007 42.5945 8.80007 42.3913C8.80007 42.3278 8.86845 42.2262 8.95204 42.15C9.08882 42.0229 9.2256 42.1881 10.0995 43.4836C10.6466 44.2838 11.1177 44.9189 11.1481 44.8935C11.1785 44.8554 11.3229 44.3981 11.4596 43.8647L11.7104 42.8993L11.1633 41.0195C10.8669 39.978 10.6238 39.0762 10.6238 39C10.6238 38.8222 12.5766 33.767 12.8046 33.3606C13.1162 32.8017 13.2301 32.8398 13.8456 33.6273C14.2408 34.1354 14.993 35.4817 16.3228 38.0347C17.3791 40.0542 18.2833 41.7816 18.3365 41.8705C18.4125 42.0102 18.4961 41.8451 18.7772 40.9687L19.1268 39.8764L18.6784 38.3014C18.4277 37.425 18.2225 36.6375 18.2225 36.5486C18.2225 36.447 18.3441 36.0406 18.4885 35.6341C18.7696 34.8593 18.838 34.1227 18.6784 33.6273C18.5265 33.1573 17.9794 33.4622 17.7362 34.1608C17.6602 34.364 17.5766 34.5291 17.5462 34.5291C17.5158 34.5291 17.3487 33.9956 17.1815 33.3479L16.8775 32.1793L17.1739 31.43C17.6602 30.2487 17.645 29.1945 17.1511 29.1945C16.8623 29.1945 16.5204 29.5247 16.3912 29.9185C16.3152 30.1598 16.1709 30.3249 16.1709 30.1598C16.1709 30.1344 15.9505 29.3469 15.6845 28.407L15.1982 26.6923L16.0645 23.9107C16.8319 21.4466 16.9307 21.0529 16.9307 20.494C16.9307 19.262 16.5888 18.9825 15.9049 19.6811C15.5858 19.9987 15.3426 20.494 14.3927 22.7041L13.2529 25.3333L12.1511 25.6127C11.5356 25.7651 11.0037 25.8921 10.9505 25.8921C10.8897 25.8921 10.9049 25.727 11.0037 25.346C11.2621 24.4061 11.1709 23.6059 10.8061 23.6059C10.3882 23.6059 10.1147 23.9742 9.74991 25.003L9.40037 26.0064L8.90645 26.0826C8.63289 26.1335 8.39733 26.1462 8.36694 26.1081C8.34414 26.0699 8.67849 25.4476 9.11161 24.7236C10.4642 22.4627 12.1283 20.5575 14.3851 18.6523C19.9702 13.9401 27.7666 10.9298 36.4215 10.1551C38.0933 10.0026 42.7361 10.0026 44.4002 10.1424ZM16.6268 20.4305C16.6268 20.9894 16.528 21.3704 15.7453 23.8599L14.8639 26.6542L15.2666 28.0895C15.487 28.8643 15.7757 29.9312 15.9201 30.4519L16.1785 31.3791L16.4672 30.6298C16.6268 30.2106 16.8168 29.8296 16.8927 29.7915C17.3563 29.4866 17.3563 30.109 16.8775 31.2521L16.528 32.1158L16.9763 33.8305C17.2195 34.7704 17.4474 35.5452 17.4778 35.5452C17.5082 35.5452 17.6678 35.215 17.835 34.7958C18.4733 33.2209 18.7392 33.9194 18.1465 35.6214L17.835 36.5105L18.3061 38.1871L18.7772 39.8637L18.6025 40.4988C18.5037 40.8544 18.3973 41.1211 18.3669 41.1084C18.3365 41.083 17.4778 39.47 16.452 37.5139C13.838 32.4969 13.3289 31.8872 12.6602 32.9033C12.5083 33.1319 11.908 34.5926 11.3153 36.1295L10.2362 38.9492L10.8061 40.9306L11.376 42.9247L11.2089 43.5598L11.0417 44.1949L10.2058 42.9628C9.74991 42.2897 9.31678 41.6546 9.24839 41.553C9.14201 41.4006 9.08882 41.4133 8.84566 41.6546L8.5721 41.9213V41.4768C8.5721 40.956 8.66329 41.0068 7.12834 40.6258C6.52044 40.4734 6.01132 40.321 5.99613 40.2955C5.98093 40.2701 6.10251 39.978 6.26968 39.6478L6.57363 39.0381L7.3639 38.8857C7.79703 38.8095 8.43533 38.7079 8.78487 38.6571L9.40797 38.5682L10.3958 35.2023C10.9429 33.3352 11.3836 31.6967 11.3836 31.5443C11.3836 31.1505 11.1177 30.6298 10.7909 30.3503C10.1982 29.8677 9.50675 29.7026 6.42166 29.3215C5.25145 29.1818 4.21802 29.0675 4.11164 29.0675H3.92927L4.16483 28.3181L4.40799 27.5687L5.13747 27.4163C6.89278 27.0607 6.67242 27.1877 6.99156 26.4002C7.46269 25.2571 7.66025 24.876 7.78183 24.876C8.0022 24.876 7.9794 25.2698 7.70585 26.0318C7.55387 26.4637 7.43989 26.8447 7.46269 26.8701C7.48548 26.9209 9.04323 26.6034 9.44596 26.4637C9.53714 26.4256 9.74231 26.0191 9.96268 25.3841C10.3198 24.3934 10.487 24.1139 10.7301 24.1139C10.9277 24.1139 10.8745 24.6855 10.5858 25.6381C10.3502 26.4256 10.335 26.5272 10.4566 26.5272C10.9049 26.5272 13.4733 25.7524 13.5265 25.6C13.5569 25.5111 14.066 24.3044 14.6587 22.92C15.4642 21.0656 15.8213 20.3416 16.0493 20.113C16.5356 19.6303 16.6268 19.6811 16.6268 20.4305ZM8.80007 30.1471C10.297 30.4265 11.0797 30.8838 11.0797 31.4681C11.0797 31.6332 9.32438 37.8569 9.2256 38.0474C9.218 38.0728 8.73928 38.1617 8.16177 38.2506L7.11314 38.4157L6.96877 37.8696C6.41406 35.6976 6.33047 33.17 6.7484 30.8457L6.90798 29.9566H7.34111C7.57667 29.9566 8.23776 30.0455 8.80007 30.1471Z" fill="white"/>
<path d="M27.3866 15.8199C27.3638 15.9469 27.3258 17.6108 27.2954 19.5033L27.2422 22.9708H27.9413C28.8455 22.9708 38.2832 23.3137 40.0537 23.4153L41.3987 23.4915V19.7954C41.3987 17.7759 41.3911 16.112 41.3835 16.112C41.3227 16.0993 28.0173 15.604 27.7437 15.604C27.5081 15.604 27.417 15.6548 27.3866 15.8199Z" fill="white"/>
<path d="M43.6325 18.6777C43.6629 20.367 43.7009 21.9674 43.7237 22.2214L43.7617 22.6914L45.1067 22.7676C45.8437 22.8057 47.6978 22.8819 49.2252 22.92L51.9987 22.9962L52.3863 23.6567C53.0322 24.7617 53.1233 26.197 52.6598 27.8482L52.4319 28.6611L52.1355 28.6103C51.9759 28.5848 50.2434 28.4832 48.2753 28.3689C46.3149 28.2673 44.4532 28.153 44.1568 28.1276C43.8529 28.0895 43.5945 28.0768 43.5945 28.0895C43.5793 28.1149 43.245 48.0434 43.2526 48.0815C43.2678 48.1196 49.0124 48.3864 49.0428 48.3356C49.058 48.3102 49.1416 45.4142 49.2328 41.8832C49.3164 38.3649 49.3924 35.469 49.4 35.4563C49.4076 35.4436 50.441 35.3801 51.6948 35.2912C52.9486 35.215 54.1644 35.1007 54.3923 35.0245C56.1477 34.4656 57.7662 33.043 58.5793 31.3284C58.9592 30.5282 59.3543 29.1437 59.4759 28.2038C59.9926 24.1012 58.3969 19.1985 55.8893 17.1282C54.7343 16.1756 54.6203 16.1628 49.3772 15.9342C46.8088 15.8199 44.4532 15.6929 44.1416 15.6548L43.5793 15.5786L43.6325 18.6777Z" fill="white"/>
<path d="M27.0522 36.2057L27.075 43.7376L27.2802 44.4616C27.6905 45.935 28.42 47.0146 29.5294 47.7894C30.9656 48.8055 31.6951 48.9579 35.6844 49.0849L38.4351 49.1739V47.4084C38.4351 46.4303 38.4579 44.7411 38.4883 43.636L38.5339 41.6419H36.6646C34.9549 41.6419 34.7573 41.6165 34.4002 41.3752C33.8455 41.0195 33.6023 40.702 33.2148 39.8129L32.8653 39.0381L32.9185 33.9448L32.9716 28.8516L31.3151 28.7754C30.4033 28.7246 29.0659 28.6865 28.344 28.6865H27.0294L27.0522 36.2057Z" fill="white"/>
<path d="M14.1039 10.9298L12.5386 12.0857L12.6222 12.4159C12.6678 12.5937 12.7133 12.7588 12.7209 12.7843C12.7285 12.8097 13.0249 12.6191 13.3668 12.3778C13.7164 12.1238 14.0203 11.9587 14.0507 12.0095C14.0811 12.073 14.2863 12.8224 14.5067 13.6988C14.7194 14.5752 14.9246 15.3372 14.955 15.388C15.0158 15.5024 15.5629 15.1086 15.5629 14.9435C15.5629 14.88 15.3729 14.0798 15.1373 13.1653C14.9094 12.2508 14.7422 11.4633 14.7802 11.4125C14.8106 11.349 15.0994 11.1331 15.4185 10.9044L16.0036 10.498L15.92 10.1297C15.8744 9.92643 15.7984 9.76131 15.7528 9.77401C15.7149 9.77401 14.9702 10.2948 14.1039 10.9298Z" fill="white"/>
<path d="M64.9091 9.97724C64.7191 10.3075 64.4988 11.1712 64.4988 11.6284C64.4988 12.1365 64.5748 12.2254 65.7906 13.1272L66.7632 13.8512L66.6492 14.3084C66.5884 14.5752 66.5276 14.7911 66.5124 14.8165C66.4972 14.8419 66.0413 14.5371 65.4942 14.1306C64.59 13.4701 64.5064 13.3812 64.5444 13.1272C64.5824 12.8732 64.552 12.8351 64.3012 12.7589C63.9821 12.6572 63.8909 12.7843 63.8909 13.3558C63.8909 13.8512 64.058 14.0417 65.2814 14.9308C66.2997 15.6802 66.7024 15.8453 66.9076 15.6294C67.0292 15.5024 67.3863 14.2068 67.3863 13.8766C67.3863 13.4193 67.2115 13.2034 66.1781 12.4286C65.6158 12.0095 65.1447 11.6411 65.1295 11.6157C65.1067 11.5903 65.1523 11.3617 65.2131 11.1077L65.327 10.6504L65.7678 10.9807C66.0109 11.1585 66.4213 11.4506 66.6872 11.6411C67.1051 11.9333 67.1583 12.0095 67.1279 12.2508C67.0899 12.4794 67.1279 12.5429 67.3179 12.6064C67.7358 12.7462 67.7662 12.7208 67.7662 12.1746C67.7662 11.7935 67.7282 11.6284 67.5991 11.4887C67.3331 11.1966 65.3118 9.76132 65.1675 9.76132C65.0991 9.76132 64.9851 9.86293 64.9091 9.97724Z" fill="white"/>
<path d="M8.44299 46.1758C8.40499 46.3791 8.3898 46.6461 8.40499 46.7732C8.42779 46.9766 8.45818 46.9511 8.54177 46.6079C8.60256 46.3791 8.64815 46.0995 8.64815 46.0105C8.64815 45.7055 8.51138 45.8199 8.44299 46.1758Z" fill="white"/>
<path d="M8.87611 46.786C8.76973 47.256 8.83812 47.5735 9.04328 47.5608C9.17246 47.5481 9.24085 47.6751 9.34723 48.1451C9.49161 48.8182 9.63599 50.8378 9.63599 52.3238C9.63599 52.87 9.65878 53.3272 9.69678 53.3272C9.72717 53.3272 10.0919 53.1494 10.5098 52.9462C11.2773 52.5779 11.3837 52.4127 10.6466 52.743C10.4339 52.8446 10.2363 52.8827 10.2135 52.8446C10.1907 52.8065 10.1679 52.4254 10.1679 52.0063C10.1679 50.8251 9.94753 48.1451 9.81836 47.7259C9.71957 47.3957 9.67398 47.3576 9.33204 47.3576C8.9597 47.3576 8.9521 47.3576 9.04328 47.04C9.11167 46.7987 9.11167 46.6844 9.04328 46.5701C8.98249 46.4685 8.9369 46.5193 8.87611 46.786Z" fill="white"/>
<path d="M70.5323 48.64C70.6083 49.2882 70.7451 49.428 70.7147 48.8306C70.6995 48.5383 70.6463 48.3095 70.5855 48.2713C70.5019 48.2205 70.4867 48.3095 70.5323 48.64Z" fill="white"/>
<path d="M70.0232 48.9325C70.0004 49.0215 70.0308 49.3263 70.084 49.593L70.1827 50.0884L70.2359 49.7327C70.3271 49.1358 70.1371 48.4118 70.0232 48.9325Z" fill="white"/>
<path d="M10.9808 49.2628C11.2771 49.466 11.4595 51.0918 11.4595 53.505V55.1435L11.9154 55.0546C13.4048 54.7752 14.8789 53.6067 14.8789 52.7303C14.8789 52.1714 14.4078 51.7268 13.9671 51.8666L13.7011 51.9555L13.9063 52.1333C14.3242 52.5016 14.2254 53.3399 13.7011 53.9496C13.4048 54.2798 12.6069 54.7244 12.2878 54.7244H12.0674V53.848C12.0674 52.8065 11.8698 50.19 11.7558 49.6819C11.6495 49.212 11.5659 49.1357 11.1555 49.1484C10.882 49.1484 10.844 49.1739 10.9808 49.2628Z" fill="white"/>
<path d="M69.7041 51.9047C69.4685 52.1587 68.9442 53.0605 68.8986 53.3145C68.8758 53.4288 68.8074 53.4416 68.663 53.3399C68.4427 53.2002 68.3591 53.3018 68.2375 53.8353C68.1767 54.102 68.1995 54.1655 68.4047 54.3434C68.5339 54.445 68.6934 54.7244 68.7542 54.9403C68.815 55.1689 68.891 55.3595 68.9214 55.3595C68.9442 55.3595 69.0354 55.1562 69.1266 54.9149C69.2937 54.445 69.2709 54.1909 69.043 53.7591C68.8986 53.4924 68.8986 53.4924 69.1722 53.0859C69.3621 52.8065 69.5217 52.6922 69.7117 52.6922C70.0384 52.6922 70.35 53.1621 70.35 53.6702V54.0131L70.5095 53.7591C70.5931 53.6067 70.6843 53.251 70.7071 52.9716C70.7451 52.5143 70.7223 52.4 70.5171 52.0571C70.2512 51.6252 70.0308 51.5744 69.7041 51.9047Z" fill="white"/>
<path d="M67.0824 54.4068C66.9836 54.5847 66.9456 54.7244 66.9912 54.7244C67.0368 54.7244 67.1508 54.9657 67.242 55.2451L67.4016 55.7659L67.1888 56.1342C66.7405 56.909 66.3909 56.8328 66.1326 55.8802C65.973 55.2832 65.783 55.207 65.6007 55.6643C65.4867 55.9564 65.4867 55.9945 65.6539 56.274C65.7526 56.4391 65.8894 56.7693 65.9578 56.9852C66.1554 57.6076 66.3985 57.5314 66.938 56.6677C67.2876 56.1215 67.4092 55.9818 67.4776 56.0961C67.6371 56.3629 67.8803 56.2613 68.1538 55.7913C68.397 55.3722 68.397 55.3468 68.2146 55.4611C67.9487 55.6389 67.8271 55.4865 67.6143 54.7371C67.5155 54.3814 67.394 54.0893 67.3484 54.0893C67.3028 54.0893 67.1812 54.229 67.0824 54.4068Z" fill="white"/>
<path d="M13.7089 54.7879C13.4125 55.0546 13.2909 55.3468 13.2833 55.8167C13.2833 56.5407 13.9748 57.2774 14.6511 57.252C15.0614 57.2393 15.069 57.2393 14.7803 57.125C14.4459 56.998 14.028 56.655 13.952 56.4518C13.9216 56.3756 13.8912 56.1597 13.8912 55.9564C13.8912 55.6897 13.9292 55.6135 14.066 55.6008C14.2028 55.5881 14.2028 55.5754 14.0964 55.5246C13.9596 55.4611 13.9596 55.4484 14.0888 55.2198C14.256 54.9022 14.5067 54.9149 14.7575 55.2452C14.9854 55.55 15.0082 55.7024 14.8259 55.7659C14.7499 55.7913 14.8943 55.8802 15.145 55.9564C15.3958 56.0326 15.6161 56.0708 15.6313 56.0453C15.7225 55.9056 15.3578 55.3341 14.993 55.0419C14.4687 54.6101 14.0052 54.5212 13.7089 54.7879Z" fill="white"/>
<path d="M14.332 55.7025C14.3776 55.7278 14.4688 55.7278 14.5219 55.7025C14.5675 55.6645 14.5295 55.6392 14.4232 55.6392C14.3168 55.6392 14.2788 55.6645 14.332 55.7025Z" fill="white"/>
<path d="M16.9079 57.3917C16.7331 57.6203 16.6951 57.76 16.7179 58.141C16.7407 58.5475 16.7863 58.6364 17.0826 58.8777C17.341 59.1064 17.5386 59.1699 17.9185 59.1572L18.4124 59.1445L17.9945 59.0428C17.3714 58.8904 17.113 58.2427 17.3638 57.4806C17.4246 57.3027 17.8653 57.4044 18.1541 57.6711C18.4124 57.9124 18.4504 58.0013 18.4504 58.4205C18.4504 59.6779 18.6556 60.059 19.3395 60.059L19.7042 60.0463L19.4762 59.8811C19.1115 59.6144 19.0203 59.3477 19.0279 58.5348L19.0355 57.8108L18.648 57.5187C18.3896 57.3155 18.0705 57.2011 17.6905 57.163C17.189 57.1122 17.0978 57.1503 16.9079 57.3917Z" fill="white"/>
<path d="M59.1722 58.5983C58.3439 58.9032 57.9868 59.1318 57.8196 59.4747C57.7057 59.7033 57.7284 59.716 57.9792 59.5636C58.078 59.5128 58.2908 59.4239 58.4579 59.3731L58.7543 59.2715L58.4351 59.8558C58.0324 60.5797 58.002 61.1513 58.3212 61.5832C58.4883 61.7991 58.5947 61.8372 58.8303 61.7737C59.1722 61.6848 59.7953 61.164 59.9929 60.7957C60.0993 60.5924 60.0613 60.6051 59.7041 60.8719C59.2178 61.2529 59.0278 61.2783 58.8151 60.9735C58.3895 60.3892 58.6175 59.4493 59.271 59.1191C59.6129 58.9413 60.274 58.2554 60.0537 58.2935C60.0157 58.3062 59.6129 58.4459 59.1722 58.5983Z" fill="white"/>
<path d="M20.1602 58.6237C19.955 58.7126 19.8259 58.9159 19.9854 58.9159C20.2362 58.9159 20.2894 59.2334 20.1602 59.9955C20.0918 60.3892 20.0538 60.7449 20.069 60.783C20.0918 60.8211 20.2058 60.7957 20.3274 60.7322C20.4946 60.6306 20.5553 60.4781 20.6541 59.932C20.7225 59.5636 20.8137 59.2334 20.8669 59.1953C20.9201 59.1699 21.0797 59.3223 21.2164 59.5255C21.566 60.0336 21.8699 60.1352 22.1891 59.8558L22.4398 59.6271L22.2043 59.5509C22.0751 59.5001 21.8851 59.3731 21.7863 59.2588C21.6724 59.1191 21.4596 59.0429 21.2088 59.0429C20.8593 59.0429 20.8061 59.0048 20.8061 58.7888C20.8061 58.5856 20.7605 58.5348 20.5629 58.5475C20.4262 58.5602 20.2438 58.5856 20.1602 58.6237Z" fill="white"/>
<path d="M26.8242 58.9031C26.4215 59.335 26.3531 59.9955 26.6875 60.3765C26.771 60.4781 27.2498 60.8338 27.7361 61.1513C28.7543 61.8118 28.9747 62.1293 28.8531 62.7136C28.7239 63.3359 28.2832 63.5519 27.6753 63.2851C27.2194 63.0946 26.961 62.8533 26.6191 62.3198C26.4063 61.9896 26.3683 61.9769 26.0872 62.1039L25.7832 62.2436L26.1175 62.739C27.0826 64.1742 29.0507 63.9964 29.2786 62.4723C29.3622 61.888 29.2026 61.4942 28.7315 61.1005C28.4884 60.8973 28.2072 60.6813 28.1008 60.6305C27.3485 60.2622 26.9838 59.7795 27.075 59.2969C27.2042 58.6364 28.0096 58.7888 28.534 59.5763C28.6631 59.7795 28.7619 59.8177 28.9671 59.7541C29.385 59.6271 29.3622 59.4493 28.8835 59.081C28.268 58.5983 27.1966 58.5221 26.8242 58.9031Z" fill="white"/>
<path d="M49.5901 59.9574L49.3014 60.3511L49.5749 60.7448C49.8257 61.1132 49.8485 61.2148 49.9549 62.4087C50.0993 64.0726 50.0917 64.0472 50.4412 64.3139C50.8515 64.6188 51.0567 64.5045 51.5886 63.6408C51.9762 63.0057 52.0369 62.8406 52.0369 62.4468C52.0369 61.5069 51.467 61.3037 50.8287 62.015C50.3956 62.5103 50.4108 62.5357 50.3272 61.2656C50.2132 59.462 50.0917 59.2588 49.5901 59.9574ZM51.4898 62.4214C51.6798 62.6374 51.7254 63.3232 51.5658 63.59C51.4518 63.7805 50.9655 63.7932 50.7148 63.6027C50.5248 63.4502 50.3804 62.8533 50.4792 62.5992C50.6236 62.2182 51.2239 62.1039 51.4898 62.4214Z" fill="white"/>
<path d="M22.8121 59.8558C22.5157 60.0717 22.2498 60.6305 22.2498 61.037C22.2498 61.7356 23.1464 62.4596 23.7923 62.269L24.1115 62.1801L23.6175 62.015C23.0324 61.8118 22.8197 61.4815 22.8881 60.8973C22.9868 60.1225 23.382 59.8304 23.7543 60.2622C24.0051 60.5543 23.9595 60.6814 23.5643 60.7322C23.3592 60.7576 23.5111 60.783 23.9063 60.7957C24.2862 60.8084 24.6054 60.7703 24.6054 60.7195C24.6054 60.6559 24.5446 60.5162 24.4686 60.4019C24.1115 59.8558 23.2072 59.5636 22.8121 59.8558Z" fill="white"/>
<path d="M46.5887 60.2749C46.4292 60.4527 46.4216 60.5416 46.4595 61.3799C46.5127 62.4469 46.3684 63.2343 45.882 64.4918L45.5857 65.2666L45.9808 64.8855C46.4595 64.441 47.1054 64.0472 47.7589 63.8186C48.1921 63.6662 48.2453 63.6662 48.3592 63.8821C48.7544 64.6061 49.4991 64.7966 49.803 64.2378C49.917 64.0345 49.917 63.9964 49.8182 64.0599C49.4611 64.2886 48.2833 62.866 47.379 61.1132C47.075 60.5416 46.8167 60.059 46.7939 60.0717C46.7711 60.0717 46.6799 60.1606 46.5887 60.2749ZM47.8957 63.3487C47.8425 63.4249 46.3836 64.2378 46.3608 64.1997C46.3532 64.1869 46.4671 63.8694 46.6115 63.5011C46.7635 63.1327 46.9307 62.6247 46.9991 62.3833L47.1054 61.9261L47.5158 62.5993C47.7437 62.9803 47.9109 63.3106 47.8957 63.3487Z" fill="white"/>
<path d="M56.7253 60.1987C56.6342 60.2876 56.6114 60.3765 56.657 60.4781C56.695 60.567 56.7557 60.8719 56.7861 61.164C56.8317 61.672 56.8241 61.7102 56.581 61.9642C56.4442 62.1039 56.2086 62.2182 56.0567 62.2182C55.7603 62.2182 55.6767 62.0404 55.5703 61.1005C55.5095 60.6178 55.3348 60.567 55.0688 60.9481C54.9016 61.1767 54.8941 61.2148 55.0156 61.3291C55.0916 61.4053 55.1752 61.6975 55.198 61.9769C55.2968 63.0057 55.5627 63.0819 56.3302 62.3325C56.6266 62.0404 56.8697 61.8753 56.8849 61.9515C56.9001 62.0277 56.9761 62.1547 57.0597 62.2182C57.2117 62.3579 57.3864 62.2563 57.736 61.8118L57.926 61.5577L57.7132 61.6466C57.4244 61.7737 57.3029 61.5577 57.2041 60.7448C57.1129 60.0336 57.0141 59.9193 56.7253 60.1987Z" fill="white"/>
<path d="M53.4274 61.2021C52.7663 61.5959 52.2648 62.3325 52.2648 62.9168C52.2648 63.0692 52.3484 63.3233 52.4547 63.4884C52.6143 63.7297 52.7359 63.7932 53.0474 63.7932C53.7845 63.7932 54.6964 62.6628 54.6964 61.7483C54.6964 60.9608 54.1873 60.7449 53.4274 61.2021ZM53.8605 61.5197C54.1873 61.7991 54.2936 62.6755 54.0505 63.0946C53.9213 63.3233 53.3514 63.336 53.1158 63.12C52.7283 62.7771 52.7663 61.8372 53.1766 61.4943C53.4274 61.2783 53.5946 61.291 53.8605 61.5197Z" fill="white"/>
<path d="M35.3424 61.735C35.1449 61.9002 35.1145 62.2434 35.274 62.4595C35.3576 62.5866 35.4564 62.5485 35.7148 62.3324C35.9807 62.0909 36.0111 62.0273 35.8895 61.9892C35.806 61.9637 35.7072 61.8621 35.6768 61.7604C35.6084 61.557 35.5704 61.557 35.3424 61.735Z" fill="white"/>
<path d="M29.8637 62.1674C29.5901 62.4088 29.3926 62.9168 29.3926 63.4122C29.3926 64.0599 30.1069 64.5934 30.7907 64.4537C31.3303 64.3521 31.4062 64.1489 30.9047 64.1489C30.3728 64.1489 30.0917 63.9583 30.0309 63.5519C29.8865 62.5866 30.3652 61.888 30.8211 62.4215C31.0871 62.7263 31.0187 62.8533 30.5932 62.8533C30.3804 62.8533 30.2208 62.8914 30.2512 62.9295C30.274 62.9676 30.616 62.9676 31.0187 62.9168C31.809 62.8152 31.8774 62.6882 31.3835 62.2817C30.9807 61.9642 30.1828 61.9007 29.8637 62.1674Z" fill="white"/>
<path d="M32.3637 62.7136L32.1053 62.9422L32.3029 63.0311C32.5005 63.1073 32.5081 63.1454 32.5081 63.9964C32.5081 64.4918 32.5233 64.8855 32.5461 64.8855C32.5613 64.8855 32.6677 64.822 32.774 64.7331C32.9108 64.6315 32.964 64.4918 32.964 64.2505C32.964 63.6662 33.0552 63.0946 33.1616 63.0184C33.2148 62.993 33.3515 63.0819 33.4731 63.2216C33.5947 63.3741 33.8151 63.5265 33.9594 63.5646C34.1874 63.6281 34.2786 63.5773 34.4762 63.2851L34.7193 62.9168L34.3926 62.8787C34.2102 62.8533 33.8379 62.8406 33.5567 62.8279C33.2072 62.8152 33.0324 62.7644 33.0096 62.6501C32.9564 62.4087 32.6753 62.4342 32.3637 62.7136Z" fill="white"/>
<path d="M35.3956 62.9422C35.1524 63.0946 35.0916 63.247 35.2056 63.4376C35.2968 63.59 35.2968 63.6916 35.2056 64.1234C35.1448 64.4029 35.1144 64.7204 35.1372 64.822C35.198 65.0633 35.426 65.1777 35.6995 65.076C35.9655 64.9744 36.0795 64.7585 35.8591 64.7585C35.6387 64.7585 35.6007 64.5807 35.7071 63.9964C35.7755 63.6154 35.7755 63.4122 35.7147 63.1708C35.6235 62.8406 35.5931 62.8279 35.3956 62.9422Z" fill="white"/>
<path d="M37.3486 62.993C36.3303 63.3867 35.9276 64.4918 36.5583 65.1522C37.0978 65.7238 38.2452 65.2158 38.6859 64.225C39.1039 63.2978 38.344 62.5993 37.3486 62.993ZM38.0096 63.4249C38.2604 63.8059 38.2756 64.4537 38.0476 64.8728C37.9109 65.1141 37.8349 65.1522 37.6069 65.076C37.1054 64.9236 36.7786 64.3775 36.8774 63.8567C37.0218 63.0946 37.6373 62.8533 38.0096 63.4249Z" fill="white"/>
<path d="M42.9259 63.0184C42.66 63.1581 42.1584 63.8694 42.1584 64.098C42.1584 64.1742 42.356 64.2631 42.5992 64.314C43.473 64.4664 43.739 64.7331 43.3363 65.0379C43.1843 65.1522 43.0627 65.1522 42.7967 65.0379C42.4548 64.8855 42.1584 64.9871 42.1584 65.2666C42.1584 65.4952 42.9791 65.4063 43.3894 65.1395C44.3317 64.5426 44.3393 64.1107 43.397 63.8821C42.8195 63.7424 42.5764 63.5646 42.66 63.3486C42.7132 63.1962 43.2375 63.1962 43.473 63.3486C43.6098 63.4376 43.7086 63.4122 43.8606 63.247C44.0353 63.0565 44.0505 63.0057 43.9442 62.9295C43.7618 62.8152 43.2223 62.8533 42.9259 63.0184Z" fill="white"/>
<path d="M39.2483 63.2471C39.1495 63.3487 39.1343 63.4249 39.1951 63.6154C39.2331 63.7424 39.271 64.1107 39.271 64.4283C39.271 64.8982 39.3014 65.038 39.461 65.2158C39.6358 65.4063 39.6814 65.4063 40.1221 65.165L40.6008 64.9109L40.2437 64.8982C39.8106 64.8855 39.727 64.695 39.727 63.7551C39.727 63.1708 39.7118 63.1073 39.5598 63.1073C39.461 63.1073 39.3242 63.1708 39.2483 63.2471Z" fill="white"/>
<path d="M40.9352 63.1327C40.9048 63.2978 40.8972 64.7585 40.9276 64.9871C40.9428 65.1395 41.0339 65.3047 41.1327 65.3428C41.2923 65.4063 41.8546 65.1014 41.8546 64.949C41.8546 64.9109 41.8242 64.9109 41.7786 64.949C41.7406 64.9871 41.6418 64.9617 41.5582 64.8855C41.4367 64.7839 41.3987 64.5934 41.3835 63.9583C41.3607 63.2089 41.3531 63.1708 41.1555 63.1327C41.0339 63.1073 40.9428 63.1073 40.9352 63.1327Z" fill="white"/>
<path d="M71.5961 2.81364C71.1478 3.18198 70.7147 3.96947 70.5931 4.66805C70.4487 5.44283 70.4791 6.56056 70.6615 7.18293C71.4137 9.77402 73.7314 9.53269 74.2709 6.80189C74.4988 5.63335 74.3165 4.32511 73.7922 3.46141C73.4198 2.82634 73.1083 2.61041 72.5156 2.55961C72.0672 2.5215 71.9229 2.55961 71.5961 2.81364ZM73.1235 3.27089C73.6858 3.69004 74.0733 4.71885 74.0733 5.76037C74.0733 6.33193 73.9061 7.22103 73.7998 7.22103C73.7694 7.22103 73.5566 6.97971 73.3286 6.67487L72.9031 6.14141L73.1691 6.10331C73.549 6.0398 73.6174 5.88738 73.6174 5.04909C73.6174 4.45212 73.587 4.287 73.473 4.17269C73.3894 4.10918 72.8955 4.04568 72.3712 4.04568H71.4137V5.69686V7.34805H71.6417C71.8621 7.34805 71.8697 7.33535 71.8697 6.71298C71.8697 6.09061 71.8697 6.0779 72.1128 6.0779C72.2952 6.0779 72.4396 6.23032 72.7511 6.71298C73.1007 7.27184 73.1919 7.34805 73.473 7.34805H73.7922L73.6098 7.67828C73.3134 8.21174 72.9107 8.49118 72.432 8.49118C71.6189 8.49118 71.0338 7.74179 70.8362 6.43354C70.4943 4.2362 71.8773 2.31828 73.1235 3.27089ZM73.0703 4.66805C73.1311 4.73155 73.1615 4.93478 73.1463 5.138L73.1235 5.50634L72.5004 5.54444L71.8697 5.58255V5.1507C71.8697 4.92207 71.8925 4.68075 71.9229 4.64264C71.9912 4.51563 72.9563 4.54103 73.0703 4.66805Z" fill="white"/>
</svg>
